<?xml version="1.0" encoding="UTF-8"?>
<svg width="384px" height="244px" viewBox="0 0 384 244" version="1.1" xmlns="http://www.w3.org/2000/svg" xmlns:xlink="http://www.w3.org/1999/xlink">
    <!-- Generator: Sketch 52.6 (67491) - http://www.bohemiancoding.com/sketch -->
    <title>1</title>
    <desc>Created with Sketch.</desc>
    <defs>
        <linearGradient x1="50%" y1="93.9657634%" x2="50%" y2="-1.11022302e-14%" id="linearGradient-1">
            <stop stop-color="#FF87DB" offset="0%"></stop>
            <stop stop-color="#FAFF7F" offset="100%"></stop>
        </linearGradient>
    </defs>
    <g id="1" stroke="none" stroke-width="1" fill="none" fill-rule="evenodd">
        <path d="M176.538042,110.231463 C175.050723,110.886558 173.543883,111.463138 172.025782,111.944464 C160.783683,115.508865 150.936614,113.138589 145.542106,102.464327 C137.970406,87.5575438 143.193243,73.9423606 155.84736,62.7526426 C158.705006,60.2256974 161.746792,58.0106328 164.789885,56.111225 C166.632141,54.9613442 168.091915,54.1586812 169.003949,53.7080782 C185.340106,45.7215127 200.084311,45.7215127 212.255158,50.6295121 C214.072306,51.362293 215.677853,52.1542664 217.063493,52.9572618 C217.883828,53.4326559 218.496624,53.8338857 218.895291,54.1229641 C230.669739,62.2616429 236.756732,80.1275648 239.007852,104.965106 C240.284802,119.05422 240.189432,134.028898 239.264776,148.206429 C239.114471,150.511027 238.953224,152.594431 238.791633,154.422419 C238.73476,155.065796 238.681779,155.632369 238.634014,156.11785 C238.61161,156.345555 238.593839,156.520406 238.581298,156.640462 C237.378435,173.414949 231.509048,184.613606 222.310093,190.84695 C218.860545,193.184413 215.175663,194.652781 211.452952,195.42129 C208.983721,195.931034 206.839156,196.07305 205.177122,196.005485 C205.131511,196.003631 205.088557,196.001674 205.048299,195.999651 C194.100006,195.949217 186.005255,190.437402 180.62832,181.598605 C178.808355,178.606882 177.429885,175.437986 176.418362,172.271478 C175.819639,170.397217 175.459958,168.894076 175.286837,167.929536 C172.373944,153.412762 172.491927,137.398401 174.744539,121.008943 C175.2614,117.248389 175.86926,113.642099 176.538042,110.231463 Z" stroke="#390060" stroke-width="10" fill="url(#linearGradient-1)"></path>
    </g>
</svg>