<?xml version="1.0" encoding="UTF-8"?>
<svg width="384px" height="244px" viewBox="0 0 384 244" version="1.1" xmlns="http://www.w3.org/2000/svg" xmlns:xlink="http://www.w3.org/1999/xlink">
    <!-- Generator: Sketch 52.6 (67491) - http://www.bohemiancoding.com/sketch -->
    <title>2</title>
    <desc>Created with Sketch.</desc>
    <defs>
        <linearGradient x1="50%" y1="93.9657634%" x2="50%" y2="-1.11022302e-14%" id="linearGradient-1">
            <stop stop-color="#FF87DB" offset="0%"></stop>
            <stop stop-color="#FAFF7F" offset="100%"></stop>
        </linearGradient>
    </defs>
    <g id="2" stroke="none" stroke-width="1" fill="none" fill-rule="evenodd">
        <path d="M221.025058,136.119048 C223.945176,136.677294 226.828949,137.49514 229.597358,138.62397 C241.529683,143.489424 248.81099,153.080249 248.397901,167.744867 C248.161618,175.896631 244.092555,182.399032 237.089467,187.099453 C231.577599,190.798978 224.398882,193.315408 215.927782,194.907331 C206.385186,196.700613 196.477858,197.150123 187.965585,196.863598 C187.288291,196.8408 186.775156,196.817563 186.443106,196.799246 C166.696244,196.68499 153.194477,191.814438 145.03195,183.504371 C141.986826,180.404206 139.910469,177.037311 138.641446,173.635099 C138.184073,172.408894 137.861082,171.252338 137.649682,170.189647 C137.526811,169.571981 137.456281,169.065597 137.422998,168.685965 C136.406265,159.721247 137.854787,152.204247 141.647316,145.538562 C144.723631,140.131682 148.955733,135.681193 155.75574,130.04784 C156.998817,129.018034 164.875695,122.720058 167.188901,120.767398 C174.575474,114.578647 177.62504,107.998005 174.948878,104.330599 C173.706117,102.612665 172.151583,101.679192 170.179046,101.301439 C168.090128,100.901397 165.649297,101.15628 163.23976,101.857514 C162.67275,102.022528 162.15915,102.197917 161.714581,102.369577 C161.47402,102.462463 161.329352,102.524076 161.295291,102.539797 L160.764338,102.784852 L160.191168,102.900774 C149.447722,105.073606 141.8223,100.432193 137.63542,91.9174558 C136.506813,89.62224 135.711228,87.2112636 135.177009,84.8065963 C134.85379,83.3517038 134.684553,82.1856905 134.618979,81.4352348 L134.604931,81.2220031 C133.963646,66.7930888 142.842717,56.7501461 157.301658,50.4948513 C161.94707,48.485131 166.875476,47.0019069 171.797228,45.9527186 C173.516999,45.5861086 175.117637,45.2989348 176.561919,45.0816087 C177.449303,44.948081 178.103054,44.8661048 178.485504,44.826541 L178.600215,44.8160085 C197.083733,43.3333733 211.131588,47.490686 221.13426,55.4490601 C224.214548,57.8998133 226.680543,60.5437575 228.593397,63.2131901 C229.280467,64.1720117 229.852849,65.0756007 230.318688,65.9041903 C230.557611,66.3291643 230.740335,66.6830569 230.870741,66.9565015 C239.859145,83.7014075 238.696806,101.807237 230.508036,119.805386 C227.836105,125.678039 224.578075,131.151846 221.025058,136.119048 Z" stroke="#390060" stroke-width="10" fill="url(#linearGradient-1)"></path>
    </g>
</svg>