<?xml version="1.0" encoding="UTF-8"?>
<svg width="384px" height="244px" viewBox="0 0 384 244" version="1.1" xmlns="http://www.w3.org/2000/svg" xmlns:xlink="http://www.w3.org/1999/xlink">
    <!-- Generator: Sketch 52.6 (67491) - http://www.bohemiancoding.com/sketch -->
    <title>3</title>
    <desc>Created with Sketch.</desc>
    <defs>
        <linearGradient x1="50%" y1="93.9657634%" x2="50%" y2="-1.11022302e-14%" id="linearGradient-1">
            <stop stop-color="#FF87DB" offset="0%"></stop>
            <stop stop-color="#FAFF7F" offset="100%"></stop>
        </linearGradient>
    </defs>
    <g id="3" stroke="none" stroke-width="1" fill="none" fill-rule="evenodd">
        <path d="M179.201989,44.2023078 C179.558733,44.1799647 180.113741,44.151433 180.846725,44.1234568 C188.806091,43.819667 197.95954,44.2109105 206.764294,45.8619283 C220.068963,48.3567447 229.900969,53.2897969 234.587748,61.8025707 C241.091288,73.7052752 239.49935,86.0347578 233.095758,97.3983891 C232.502772,98.450686 231.889026,99.4528883 231.263986,100.40216 C236.688716,103.918115 241.069199,108.573462 244.494206,114.083193 C247.276045,118.558274 249.259628,123.31878 250.592276,128.077579 C251.059818,129.747144 251.414094,131.304492 251.671379,132.714728 C251.831774,133.593883 251.926294,134.253006 251.968767,134.64201 C254.07966,153.439009 248.884432,168.265126 238.916803,179.254646 C235.957421,182.517426 232.785712,185.191408 229.600035,187.326153 C228.470031,188.083378 227.411273,188.722425 226.447578,189.249143 C225.835517,189.583672 225.367316,189.816434 224.975139,189.993346 C202.077651,199.839266 179.140672,198.869121 158.29876,191.347757 C154.812364,190.089597 151.681258,188.738131 148.945556,187.379802 C147.267793,186.546759 146.069619,185.880266 145.391764,185.465807 L145.2919,185.404747 L145.195003,185.339081 C143.513873,184.199803 141.9819,183.028803 140.595997,181.826097 C134.081473,176.172704 130.823605,169.825113 130.586286,163.174393 C130.402363,158.020062 132.012911,153.208497 134.75656,148.856288 C135.643303,147.449663 136.591517,146.188286 137.546729,145.080636 C138.109988,144.42749 138.57845,143.937624 138.907707,143.621333 C142.292635,140.253259 146.302913,138.236596 150.713979,137.477461 C156.432529,136.49331 162.281404,137.633617 167.94834,140.074539 C169.408686,140.703555 170.749554,141.377536 171.949514,142.056234 C172.625131,142.438364 173.14282,142.756444 173.484987,142.981099 C179.055522,146.374908 183.237882,146.557837 186.416068,145.10982 C186.771132,144.948048 187.064729,144.783052 187.292646,144.631355 C187.357437,144.588231 187.381193,144.571631 187.356294,144.594343 C187.907244,144.107916 188.291674,143.630868 188.548852,143.15915 C189.146695,142.06258 189.111727,140.782111 188.611386,139.442973 C188.474188,139.075768 188.358497,138.847681 188.34601,138.827464 L188.28651,138.728597 C187.797117,137.893751 186.702264,137.173365 185.013802,136.663978 C183.987526,136.354364 182.837932,136.154378 181.653885,136.054239 C180.829983,135.984559 180.109031,135.971212 179.571359,135.988578 C179.515937,135.990368 179.491038,135.99153 179.499461,135.991024 L179.349865,136 L179.2,136 C166.493545,136 158.118768,131.423362 153.927749,123.679955 C151.644766,119.461871 150.98961,115.18223 151.188621,111.587686 C151.192593,111.515941 151.196782,111.449076 151.201085,111.387208 C151.259892,105.627215 153.70732,100.855995 157.86442,96.9623086 C148.180416,95.4853065 141.509455,91.687962 137.559431,85.9682462 C134.600129,81.6831173 133.729916,77.2431633 133.989129,73.5070877 C133.994184,73.4342306 133.999543,73.3656528 134.005099,73.3014463 C134.320015,60.3312701 143.489212,52.1028286 157.711651,47.6731464 C162.468362,46.1916339 167.50763,45.2297669 172.537941,44.6739892 C174.293338,44.4800427 175.926361,44.3501079 177.398979,44.2719629 C178.195063,44.2297185 178.804886,44.2092053 179.201989,44.2023078 Z" stroke="#390060" stroke-width="10" fill="url(#linearGradient-1)"></path>
    </g>
</svg>