<?xml version="1.0" encoding="UTF-8"?>
<svg width="1026px" height="1026px" viewBox="0 0 1026 1026" version="1.1" xmlns="http://www.w3.org/2000/svg" xmlns:xlink="http://www.w3.org/1999/xlink">
    <!-- Generator: Sketch 52.6 (67491) - http://www.bohemiancoding.com/sketch -->
    <title>machine</title>
    <desc>Created with Sketch.</desc>
    <defs>
        <rect id="path-1" x="0" y="0" width="212" height="203" rx="16"></rect>
    </defs>
    <g id="machine" stroke="none" stroke-width="1" fill="none" fill-rule="evenodd">
        <rect id="Rectangle" stroke="#979797" fill="#E753BB" x="90.5" y="170.5" width="827" height="620"></rect>
        <circle id="Oval" fill="#89E9FF" cx="455.19348" cy="720.5" r="67.5"></circle>
        <circle id="Oval" fill="#FAFF7F" cx="614.5" cy="716.5" r="67.5"></circle>
        <circle id="Oval" fill="#7F96FF" cx="765.80652" cy="716.5" r="67.5"></circle>
        <rect id="Rectangle" fill="#D43164" x="146" y="653" width="224" height="142"></rect>
        <path d="M259.452379,625.470807 C256.363039,619.793349 251.123591,613.584076 245.499506,610.150376 C221.859675,595.717435 196.534629,590.219737 174.712878,609.016075 C158.413577,623.055607 169.239766,661.666648 173.224425,673.882592 C183.207539,704.488259 223.246414,739.573718 252.997473,749.261486 C257.551572,750.744427 351.5,711.5 356.975679,661.869723 C358.213422,650.651107 360.557387,639.22012 358.51055,627.941926 C353.470703,600.172071 308.081762,596.472273 288.423279,605.488132 C279.473071,609.592915 269.816104,616.253807 259.452379,625.470807 Z" id="Path-7" fill="#FF5B5E"></path>
        <rect id="Rectangle" fill="#A1006C" x="357.69348" y="642" width="12.613482" height="149" rx="6"></rect>
        <rect id="Rectangle" fill="#A1006C" x="155" y="649" width="13" height="142" rx="6"></rect>
        <rect id="Rectangle" fill="#FFD2F2" x="90" y="170" width="65" height="653"></rect>
        <rect id="Rectangle" fill="#FFD2F2" x="853" y="202" width="65" height="621"></rect>
        <path d="M72.9745565,816.500166 L9.72105571,998.092197 C5.90598135,1009.04475 11.6920482,1021.01627 22.6445978,1024.83135 C24.8655155,1025.60495 27.2006053,1026 29.552401,1026 L993.021312,1026 C1004.61929,1026 1014.02131,1016.59798 1014.02131,1005 C1014.02131,1002.02887 1013.39085,999.091557 1012.17157,996.382132 L929.82979,813.405762 C923.693355,799.76964 910.130193,791 895.176944,791 L108.859848,791 C92.6911805,791 78.2931266,801.231288 72.9745565,816.500166 Z" id="Path-2" fill="#FF87DB"></path>
        <g id="Rectangle-+-Rectangle-Mask" transform="translate(155.000000, 823.000000)">
            <mask id="mask-2" fill="white">
                <use xlink:href="#path-1"></use>
            </mask>
            <use id="Mask" fill="#D43164" xlink:href="#path-1"></use>
            <rect id="Rectangle" fill="#A1006C" mask="url(#mask-2)" x="0" y="-6" width="13" height="209"></rect>
            <rect id="Rectangle" fill="#A1006C" mask="url(#mask-2)" x="199" y="-6" width="13" height="209"></rect>
        </g>
        <g id="Group-3" transform="translate(218.000000, 633.000000)">
            <g id="Group-2">
                <path d="M33.002138,11.8400383 L9.49928746,47.9499747 C6.78784324,52.1158556 7.9668972,57.6910293 12.1327782,60.4024735 C13.5936589,61.3533159 15.2992177,61.8594787 17.0422822,61.8594787 L64.0479833,61.8594787 C69.018546,61.8594787 73.0479833,57.8300415 73.0479833,52.8594787 C73.0479833,51.1164142 72.5418205,49.4108554 71.590978,47.9499747 L48.0881275,11.8400383 C45.3766833,7.67415737 39.8015097,6.49510341 35.6356287,9.20654763 C34.5837847,9.89116067 33.686751,10.7881943 33.002138,11.8400383 Z" id="Path-6" stroke="#FAFF7F" stroke-width="6"></path>
                <path d="M36.436967,35.0356748 C35.9701069,33.1810416 36.2996552,29.9627075 36.2996552,29.9627075 C36.2996552,29.9627075 36.6017412,25.5988648 40.8858694,25.5988648 C40.8858694,25.5988648 44.3461269,25.6806868 45.2523848,29.3899532 C46.103718,32.9083014 45.2523848,36.0448134 45.2523848,36.0448134 C45.2523848,36.0448134 44.3186645,39.3995175 40.8858694,39.3995175 C37.0136766,39.3995175 36.436967,35.0356748 36.436967,35.0356748 Z M44.428514,44.0633745 C44.428514,45.6998155 42.835697,47.0089684 40.8584071,47.0089684 C38.9085795,47.0089684 37.3157626,45.6998155 37.3157626,44.0633745 C37.3157626,42.4269334 38.9085795,41.1177806 40.8584071,41.1177806 C42.835697,41.1177806 44.428514,42.4269334 44.428514,44.0633745 Z" id="!" fill="#FAFF7F"></path>
            </g>
        </g>
        <text id="DANGER!" font-family="Sniglet-Regular, Sniglet" font-size="28" font-weight="normal" letter-spacing="3.20000005" fill="#FF5B5E">
            <tspan x="198.546" y="776">DANGER</tspan>
            <tspan x="318.21" y="776">!</tspan>
        </text>
    </g>
</svg>