<?xml version="1.0" encoding="UTF-8"?>
<svg width="1026px" height="1026px" viewBox="0 0 1026 1026" version="1.1" xmlns="http://www.w3.org/2000/svg" xmlns:xlink="http://www.w3.org/1999/xlink">
    <!-- Generator: Sketch 52.6 (67491) - http://www.bohemiancoding.com/sketch -->
    <title>machine</title>
    <desc>Created with Sketch.</desc>
    <g id="machine" stroke="none" stroke-width="1" fill="none" fill-rule="evenodd">
        <path d="M540.78765,51 L585.362253,51 L585.362253,343.135807 L680.058467,413.593317 C683.949273,416.488221 684.846701,421.945409 682.087853,425.933841 L622.64414,511.870874 C622.015774,512.779295 620.769961,513.006324 619.86154,512.377958 C619.139316,511.878387 618.827459,510.966133 619.092723,510.128986 L646.179893,424.644423 L563.380257,371.249295 L481.491628,424.644423 L511.775743,510.157841 C512.14448,511.199045 511.599337,512.342028 510.558132,512.710765 C509.728514,513.00457 508.804333,512.721515 508.281548,512.013502 L444.760383,425.986036 C441.818687,422.002062 442.648387,416.390012 446.617043,413.427683 L540.78765,343.135807 L540.78765,51 Z" id="claw" fill="#FFFFFF"></path>
    </g>
</svg>