<?xml version="1.0" encoding="UTF-8"?>
<svg width="241px" height="462px" viewBox="0 0 241 462" version="1.1" xmlns="http://www.w3.org/2000/svg" xmlns:xlink="http://www.w3.org/1999/xlink">
    <!-- Generator: Sketch 52.6 (67491) - http://www.bohemiancoding.com/sketch -->
    <title>claw</title>
    <desc>Created with Sketch.</desc>
    <g id="Page-1" stroke="none" stroke-width="1" fill="none" fill-rule="evenodd">
        <g id="machine" transform="translate(-157.000000, -51.000000)" fill="#FFFFFF">
            <path d="M254.78765,51 L299.362253,51 L299.362253,343.135807 L394.058467,413.593317 C397.949273,416.488221 398.846701,421.945409 396.087853,425.933841 L336.64414,511.870874 C336.015774,512.779295 334.769961,513.006324 333.86154,512.377958 C333.139316,511.878387 332.827459,510.966133 333.092723,510.128986 L360.179893,424.644423 L277.380257,371.249295 L195.491628,424.644423 L225.775743,510.157841 C226.14448,511.199045 225.599337,512.342028 224.558132,512.710765 C223.728514,513.00457 222.804333,512.721515 222.281548,512.013502 L158.760383,425.986036 C155.818687,422.002062 156.648387,416.390012 160.617043,413.427683 L254.78765,343.135807 L254.78765,51 Z" id="claw"></path>
        </g>
    </g>
</svg>