<?xml version="1.0" encoding="UTF-8"?>
<svg width="384px" height="244px" viewBox="0 0 384 244" version="1.1" xmlns="http://www.w3.org/2000/svg" xmlns:xlink="http://www.w3.org/1999/xlink">
    <!-- Generator: Sketch 52.6 (67491) - http://www.bohemiancoding.com/sketch -->
    <title>GO</title>
    <desc>Created with Sketch.</desc>
    <defs>
        <linearGradient x1="50%" y1="0%" x2="50%" y2="100%" id="linearGradient-1">
            <stop stop-color="#89FFB9" offset="0%"></stop>
            <stop stop-color="#7F96FF" offset="100%"></stop>
        </linearGradient>
    </defs>
    <g id="GO" stroke="none" stroke-width="1" fill="none" fill-rule="evenodd">
        <path d="M161.983301,107.872894 C164.895518,108.111896 167.726543,108.444282 170.35221,108.856906 C174.50729,109.489201 178.072113,110.829394 181.050782,112.68314 C182.606876,113.65156 183.915746,114.706228 184.991021,115.784575 C185.625323,116.42069 186.094637,116.977514 186.411174,117.413336 C190.956613,123.309689 193.018187,133.546119 193.530803,147.325228 C193.816165,154.995763 193.579741,163.166584 193.012437,171.154221 C192.872961,173.118038 192.723374,174.917874 192.573484,176.516704 C192.520738,177.079319 192.471604,177.577615 192.427304,178.006945 C192.408572,178.188492 192.393326,178.332551 192.381972,178.43758 C191.65415,189.205919 186.913288,196.656939 179.540412,200.915071 C176.735772,202.534863 173.769087,203.56289 170.807647,204.133007 C169.768122,204.33313 168.795393,204.462774 167.908302,204.535964 C167.338633,204.582965 166.896186,204.6 166.6,204.6 C153.385554,204.6 143.246037,199.667151 139.53329,189.437914 C129.293169,196.297815 113.743623,199.310516 95.622311,196.13993 C95.0790316,196.062148 94.2349304,195.909574 93.1294657,195.661141 C91.2240894,195.232943 89.1187723,194.642763 86.8622614,193.863835 C80.4503977,191.650517 74.0459147,188.359676 68.057513,183.767779 C51.0278577,170.709467 40.8217971,149.997609 40.8000349,120.494578 C40.7977184,120.425877 40.7953301,120.34263 40.7930687,120.245134 C40.7120003,116.750031 41.0135129,111.871994 42.0201033,106.080502 C43.5831953,97.0871371 46.5120788,88.1595042 51.1525535,79.7847127 C60.1011941,63.6348564 74.3978575,51.3607834 94.8403893,44.6494617 L95.0080198,44.5976682 C95.3646366,44.494301 95.9793337,44.3320204 96.8308281,44.1311181 C98.2074884,43.8063079 99.7773386,43.4838929 101.519277,43.1843364 C114.886299,40.8856453 129.279514,41.1651085 142.950257,45.8404758 C152.433071,49.0835794 160.895871,54.3054658 168.02069,61.7517241 C168.355386,62.1031555 168.842893,62.6721582 169.430816,63.4502137 C170.363196,64.6841208 171.285324,66.1061454 172.142454,67.7091373 C176.809614,76.437597 177.785654,86.6925309 172.771503,97.6263198 C172.524542,98.1964566 172.118323,98.9618477 171.525334,99.8594177 C170.540949,101.349418 169.282934,102.81931 167.718101,104.181635 C166.005904,105.672254 164.094456,106.911299 161.983301,107.872894 Z M271.433138,45.2002797 C301.341449,45.2720904 320.961742,59.168276 331.721672,81.9658774 C335.44312,89.8506954 337.820119,98.2444719 339.139247,106.629181 C339.600616,109.561758 339.897805,112.290318 340.063673,114.750356 C340.165235,116.256646 340.2,117.361519 340.2,118 C340.2,152.66576 327.267418,175.459435 305.732745,188.111056 C298.207977,192.531857 290.182091,195.360982 282.160914,196.931796 C279.349885,197.482289 276.731978,197.837217 274.368173,198.035607 C272.911791,198.157839 271.835353,198.2 271.2,198.2 C237.815599,198.2 215.889066,184.475615 203.78679,161.75023 C199.582265,153.855066 196.894098,145.442099 195.401965,137.036412 C194.879616,134.093849 194.543015,131.354916 194.355032,128.88398 C194.239629,127.367076 194.2,126.250849 194.2,125.6 C194.2,87.4642392 208.793548,63.7902607 233.064968,52.3287568 C245.968526,46.23541 259.274138,44.5096158 270.298656,45.1226322 C270.771822,45.1489425 271.151924,45.1761961 271.433138,45.2002797 Z M268.2,119.4 C266.581807,119.4 265.054168,121.031207 265.177477,122.325955 L265.187293,122.443765 C265.358641,124.842625 265.793705,125.2 268.2,125.2 C270.100263,125.2 271,124.380597 271,122.8 C271,120.752655 269.862052,119.4 268.2,119.4 Z" stroke="url(#linearGradient-1)" stroke-width="10" fill="#FFFFFF"></path>
    </g>
</svg>