<?xml version="1.0" encoding="UTF-8"?>
<svg width="704px" height="105px" viewBox="0 0 704 105" version="1.1" xmlns="http://www.w3.org/2000/svg" xmlns:xlink="http://www.w3.org/1999/xlink">
    <!-- Generator: Sketch 52.6 (67491) - http://www.bohemiancoding.com/sketch -->
    <title>Logo</title>
    <desc>Created with Sketch.</desc>
    <defs>
        <linearGradient x1="100%" y1="-36.677957%" x2="0%" y2="100%" id="linearGradient-1">
            <stop stop-color="#FF5B5E" offset="0%"></stop>
            <stop stop-color="#FF87DB" offset="100%"></stop>
        </linearGradient>
    </defs>
    <g id="Page-1" stroke="none" stroke-width="1" fill="none" fill-rule="evenodd">
        <g id="title" transform="translate(-369.000000, -328.000000)" fill="url(#linearGradient-1)" stroke="#FFFFFF" stroke-width="5">
            <g id="Logo" transform="translate(374.000000, 333.000000)">
                <path d="M31.2699135,97.0373433 C21.909314,97.0808489 14.5192691,94.8460571 8.93390586,91.0597285 C6.96147596,89.7226144 5.35240455,88.2794606 4.07782838,86.8225606 C3.2828304,85.9138409 2.76175855,85.1729928 2.48223743,84.686624 C-0.0457942957,80.2787738 -1.44541125,74.8222582 -2.0715749,68.1805977 C-2.44169276,64.2547914 -2.51399566,61.0487544 -2.49655058,54.6940927 C-2.49390669,53.7310132 -2.49312,53.3586623 -2.49312,52.8698438 C-2.49312,44.8577138 -1.95382192,37.1359458 -1.05459601,29.9830125 C-0.739417038,27.475907 -0.401336439,25.2169139 -0.062613137,23.241028 C0.0565318298,22.5460157 0.167483105,21.9350078 0.267462831,21.4123865 C0.328438911,21.0936479 0.372880656,20.8721125 0.382177984,20.8346127 C2.04002673,11.3448578 7.23197113,5.16406221 14.7365259,1.86833695 C19.674749,-0.300349546 24.7364856,-0.925979993 28.8978887,-0.734171181 C29.0376142,-0.727730907 29.1536726,-0.72102776 29.2448734,-0.714826063 C44.2714627,-0.814018881 56.0101113,3.07611296 64.780162,9.65303902 C67.8405215,11.948095 70.3179032,14.4157409 72.2629043,16.8957532 C73.3965203,18.3411928 74.1417246,19.5111489 74.5433378,20.2721234 C74.7880821,20.6617815 75.1465716,21.2933118 75.5820949,22.1605615 C76.3599036,23.7093979 77.1323114,25.5272895 77.8497867,27.6057601 C81.9173081,39.3890567 82.5850012,53.8640629 77.7443625,70.5927408 L77.7432583,70.5965454 C74.3819305,82.1443328 66.2554289,89.6169608 54.9771475,93.6820941 C47.0116914,96.5531557 38.7907896,97.3660208 31.998371,97.0761637 C31.6822129,97.0626721 31.4377169,97.0488412 31.2699135,97.0373433 Z M39.60988,46.0818438 C37.5177423,46.0818438 36.94988,46.589931 36.94988,48.9998438 C36.94988,51.0228348 37.2951304,51.2728438 39.60988,51.2728438 C41.2216096,51.2728438 42.14088,50.4356511 42.14088,48.9998438 C42.14088,47.3039733 41.1127393,46.0818438 39.60988,46.0818438 Z M160.259153,54.9726374 C167.528145,61.5970602 171.352313,68.1011496 172.15758,74.4136245 C172.842038,79.7790843 171.322323,84.5492516 168.401591,88.5912332 C167.55615,89.7612336 166.650861,90.7838991 165.740793,91.6577133 C165.179427,92.1967172 164.725281,92.5777902 164.495618,92.7480158 C154.796052,100.507668 145.15202,98.0339909 136.715788,88.7166903 C134.559225,86.3348982 132.568056,83.6034073 130.753786,80.6629022 C129.744786,86.3885099 126.898262,90.6178311 122.674502,93.4414813 C120.827303,94.6763628 118.861009,95.5339543 116.894209,96.0870828 C115.697107,96.4237473 114.739471,96.5871011 114.228522,96.6299648 C105.318045,97.7603984 98.5846945,94.3093238 93.9581655,87.9792452 C92.5791932,86.0925169 91.49304,84.0837926 90.6611877,82.0742108 C90.1567509,80.8555967 89.8436167,79.8873089 89.7110332,79.3634805 C84.719211,62.0783649 84.511478,46.2125723 87.1639717,32.8337911 C87.5256263,31.0096591 87.914559,29.3970237 88.3056186,28.0095637 C88.5208953,27.2457726 88.6973539,26.6857023 88.8168689,26.3392339 C91.8426781,14.8199252 98.5892713,7.1958214 107.857403,2.92042214 C114.772246,-0.269402625 121.898202,-1.18254857 127.769324,-0.879550613 C128.013095,-0.86697001 128.206791,-0.85394896 128.347287,-0.842602279 C142.282686,-0.759178894 152.339385,4.16859229 158.980545,12.3341556 C161.331086,15.2242374 163.075431,18.3160689 164.308056,21.412428 C165.056693,23.2930074 165.473586,24.7848268 165.647726,25.6990635 L165.651555,25.7196302 C167.399288,35.3321608 166.019348,43.7582087 162.638359,50.7996317 C161.883338,52.3720753 161.076034,53.7645614 160.259153,54.9726374 Z M128.23288,37.5678438 C126.76645,37.5678438 125.441072,38.9830781 125.566527,40.3077261 C125.705642,42.2553408 126.318602,42.7588438 128.23288,42.7588438 C129.84461,42.7588438 130.76388,41.9216511 130.76388,40.4858438 C130.76388,38.7899733 129.735739,37.5678438 128.23288,37.5678438 Z M222.521157,-0.198043419 C241.534135,-0.161746592 253.953937,8.62968739 260.783716,23.1002824 C263.15194,28.1179571 264.66669,33.4669156 265.507504,38.8113403 C265.801626,40.6808535 265.991001,42.4195565 266.096592,43.9855962 C266.160966,44.9403532 266.18288,45.6367984 266.18288,46.0328438 C266.18288,68.1362237 257.976589,82.5998114 244.309253,90.6293716 C239.531868,93.4360848 234.431426,95.2339909 229.333337,96.2323666 C227.547198,96.5821523 225.884807,96.8075341 224.385716,96.9333506 C223.467213,97.0104393 222.793056,97.0368438 222.40288,97.0368438 C201.143179,97.0368438 187.243663,88.3367762 179.561275,73.9109587 C176.888075,68.8912832 175.17696,63.5361278 174.226987,58.1846121 C173.894446,56.3112955 173.680267,54.5685108 173.560787,52.9980136 C173.487792,52.038544 173.46288,51.3368462 173.46288,50.9348438 C173.46288,26.6143384 182.717154,11.6018491 198.115364,4.33047213 C206.31175,0.459956692 214.780375,-0.638459819 221.781262,-0.24917667 C222.09729,-0.231603983 222.345441,-0.213496652 222.521157,-0.198043419 Z M220.46788,46.2108438 C219.00145,46.2108438 217.676072,47.6260781 217.801527,48.9507261 C217.940642,50.8983408 218.553602,51.4018438 220.46788,51.4018438 C222.07961,51.4018438 222.99888,50.5646511 222.99888,49.1288438 C222.99888,47.4329733 221.970739,46.2108438 220.46788,46.2108438 Z M360.093963,33.3213873 C360.699638,51.2142526 352.572896,61.982833 338.886311,66.7336186 C333.032465,68.765562 326.980582,69.4570752 321.567041,69.3418294 C323.367648,80.7250169 320.178778,88.2962895 313.581826,92.4075068 C311.739544,93.5556158 309.781479,94.324571 307.824353,94.7924279 C306.682473,95.0653979 305.760332,95.189638 305.154261,95.2242302 C295.037079,96.2361883 287.291771,92.3390726 281.803975,85.3141665 C280.116989,83.1546618 278.771798,80.8516452 277.728458,78.5469645 C277.096054,77.1500198 276.698601,76.0424487 276.50905,75.3849854 C271.969728,60.1562934 272.086888,44.8023469 275.002795,30.832226 C275.446919,28.7044266 275.923823,26.7959193 276.402454,25.1322965 C276.693978,24.119021 276.92507,23.4026332 277.058415,23.0270673 C280.694168,12.5237814 287.535814,5.4872553 296.575919,1.43170076 C303.947429,-1.8752914 311.564285,-2.79927293 317.904426,-2.44160963 C318.23938,-2.42271403 318.497066,-2.40318654 318.671597,-2.38702577 C335.970982,-1.78751149 347.558804,4.79413582 354.266859,15.3928001 C356.738432,19.2978624 358.35557,23.4677468 359.29117,27.636851 C359.619337,29.09919 359.83941,30.461314 359.971881,31.6913394 C360.051968,32.4349763 360.08639,32.9883636 360.093963,33.3213873 Z M318.24988,33.3108438 C316.78345,33.3108438 315.458072,34.7260781 315.583527,36.0507261 C315.722642,37.9983408 316.335602,38.5018438 318.24988,38.5018438 C319.86161,38.5018438 320.78088,37.6646511 320.78088,36.2288438 C320.78088,34.5329733 319.752739,33.3108438 318.24988,33.3108438 Z M468.159113,27.5069476 C468.208506,26.5877131 468.286979,25.6131734 468.399796,24.5953274 C468.784045,21.1285915 469.502072,17.6828351 470.642985,14.4372571 C474.20875,4.29365213 481.180342,-2.00415625 492.160262,-2.00408867 C493.017378,-1.99778635 494.372782,-1.83475905 496.066506,-1.37601713 C498.835122,-0.626142911 501.596813,0.704009551 504.168414,2.75573229 C509.955786,7.37311983 513.868453,14.8910021 515.135936,25.7472733 C516.733675,39.4006802 516.733675,52.8976882 515.775718,64.9737622 C515.635706,66.7387556 515.485484,68.3147222 515.334941,69.6817731 C515.281959,70.1628982 515.232606,70.584291 515.188119,70.9434629 C515.167324,71.1113566 515.150827,71.2398623 515.139183,71.3278632 C515.069776,72.1445955 514.884273,73.4595177 514.525712,75.1153659 C513.912754,77.946027 512.988506,80.779931 511.679907,83.4476251 C507.805831,91.3452696 501.391363,96.1976927 492.110436,96.133646 C481.973092,96.0061322 475.326244,89.7653598 471.628886,79.7981933 C470.365061,76.3912339 469.53343,72.7699631 469.04355,69.1533003 C468.927915,68.2995926 468.837181,67.4862331 468.768226,66.7218437 L468.609446,66.7218438 C468.51337,67.4980214 468.392941,68.3257986 468.245163,69.1958508 C467.636923,72.7769142 466.693824,76.3620035 465.335598,79.7332914 C461.349816,89.6265028 454.602299,95.7935193 444.601647,95.8754665 C444.586025,95.8760207 444.565463,95.8767201 444.536078,95.8777195 C443.47057,95.9084013 442.022599,95.7999947 440.319027,95.4398284 C437.693666,94.884779 435.08971,93.8446132 432.652554,92.1998578 C426.356087,87.9505814 422.251096,80.4499021 421.280367,69.2006644 C419.960026,53.2175914 420.15775,39.6155845 421.288583,28.674814 C421.48943,26.7316182 421.705236,25.040615 421.921903,23.6085353 C422.04384,22.802575 422.142476,22.2288285 422.206716,21.8925878 C422.313683,21.1115039 422.550976,19.8582088 422.960746,18.281689 C423.664729,15.5732329 424.649087,12.8622138 425.970144,10.3112081 C429.868475,2.78339691 435.885773,-1.87515625 444.28288,-1.87515625 C455.300655,-1.87515625 462.266246,4.40213483 465.769349,14.5123557 C466.870209,17.6895214 467.559112,21.0612361 467.92211,24.4601261 C468.040137,25.565258 468.115958,26.5880156 468.159113,27.5069476 Z M519.838075,67.1821545 C519.323098,63.6325415 519.004402,59.4563469 518.854646,54.7740771 C518.66064,48.7083138 518.757114,42.2299223 519.035693,35.9456557 C519.097201,34.5581423 519.163136,33.2920643 519.229137,32.1724306 C519.252298,31.7795296 519.273838,31.4326697 519.293212,31.1349821 C519.304941,30.9547561 519.313414,30.829988 519.313122,30.8610541 C519.344656,29.8609716 519.491182,28.1827375 519.836666,26.0459112 C520.411406,22.4911312 521.357419,18.9320208 522.770144,15.5841695 C526.898866,5.79999318 534.150988,-0.264302683 545.03188,-0.32715625 C545.905528,-0.32715625 547.296042,-0.177017623 549.038014,0.261851229 C551.89372,0.981311952 554.744853,2.27426766 557.404488,4.28445735 C563.40429,8.81919142 567.473,16.2555547 568.799574,27.0341918 C570.397755,40.5460857 570.397755,53.9297872 569.439604,65.9211892 C569.299567,67.673778 569.149315,69.2391236 568.99874,70.5973395 C568.945744,71.0753783 568.896377,71.4941314 568.851875,71.8511102 C568.830521,72.0224093 568.813695,72.1524904 568.801995,72.2401458 C568.727781,73.0526076 568.531134,74.3609108 568.152966,76.0083026 C567.508759,78.8146245 566.541728,81.6238434 565.176959,84.267446 C561.150251,92.0673149 554.530842,96.8422257 545.001579,96.7786601 C534.634932,96.6530038 527.599082,90.8904162 523.458999,81.6257328 C522.033421,78.4355719 521.053016,75.0440192 520.430107,71.6563699 C520.070816,69.7023876 519.89597,68.1496174 519.838075,67.1821545 Z M611.858954,-1.74588869 C622.831497,-1.70204517 630.117314,3.72748077 634.128788,12.6442888 C634.621723,13.739998 635.054186,14.8654862 635.430483,16.0130581 C635.991064,14.604523 636.634691,13.2013781 637.36824,11.8298123 C641.982814,3.20163188 649.166802,-2.00415625 659.19688,-2.00415625 C667.376897,-2.00415625 674.277066,2.0720053 679.909936,8.75285062 C681.840044,11.0420489 683.484177,13.4843039 684.852195,15.9275738 C685.678711,17.4037256 686.236334,18.567885 686.514228,19.2329826 C687.560548,21.6307976 688.517963,24.1249591 689.390365,26.7058168 C692.292205,35.2904267 694.1516,44.458275 695.184051,53.621282 C695.545116,56.825732 695.777363,59.8030109 695.906582,62.4789081 C695.951991,63.4192633 695.981255,64.2561254 695.997572,64.9801894 C696.007507,65.4210642 696.01088,65.7303885 696.008882,65.7989237 C696.562582,79.641424 692.474736,88.5306763 685.20183,93.1589656 C682.928289,94.6057887 680.504223,95.5194379 678.062525,96.0075389 C676.483567,96.3231762 675.144252,96.4188533 674.162047,96.3932705 C674.14225,96.3926615 674.127013,96.3921927 674.114786,96.3918082 C661.099473,96.3717506 652.914326,87.8546111 648.680758,74.1171142 C647.963774,71.7905751 647.384524,69.3858097 646.928086,66.9399455 C645.967584,68.6057393 644.840988,69.9782743 643.563489,71.0729479 C640.832651,73.4129688 637.939477,74.132934 635.542444,73.9525553 C635.511694,73.9502413 635.482338,73.9478197 635.454397,73.9453194 C629.853248,73.9018914 625.737651,71.1631921 622.954822,66.6198727 C621.284946,77.8947865 617.46462,85.8082614 611.994221,90.8174938 C609.340982,93.2470582 606.47442,94.8146935 603.581971,95.678127 C602.53369,95.9910522 601.543606,96.1915033 600.632051,96.3007889 C600.025248,96.3735381 599.538019,96.3969988 599.189677,96.391859 C599.159403,96.391333 599.159403,96.391333 599.21188,96.3918438 C586.914978,96.3918438 579.149286,90.6324028 575.335752,81.2212242 C574.168644,78.3409932 573.449098,75.2878238 573.085335,72.199784 C572.840904,70.1247796 572.784357,68.3062803 572.834702,66.8823361 C572.838767,66.7673695 572.843008,66.672915 572.846901,66.5999054 C572.854086,54.1310394 574.703204,42.4003101 577.782677,31.7453349 C578.864657,28.0016827 580.025642,24.6564991 581.18954,21.7519265 C581.599603,20.7285908 581.98183,19.831436 582.326738,19.0657404 C582.517401,18.6424687 582.6623,18.3346911 582.754501,18.1462801 C585.656053,11.535985 589.60542,6.65301686 594.346174,3.32119045 C597.732029,0.94159353 601.354722,-0.534653807 605.030295,-1.27593526 C607.532214,-1.78051667 609.742489,-1.89106887 611.501036,-1.77434676 C611.641396,-1.76503047 611.760992,-1.75525003 611.858954,-1.74588869 Z" id="DROP-HIM"></path>
            </g>
        </g>
    </g>
</svg>