<?xml version="1.0" encoding="UTF-8"?>
<svg width="750px" height="460px" viewBox="0 0 750 460" version="1.1" xmlns="http://www.w3.org/2000/svg" xmlns:xlink="http://www.w3.org/1999/xlink">
    <!-- Generator: Sketch 52.6 (67491) - http://www.bohemiancoding.com/sketch -->
    <title>you lose</title>
    <desc>Created with Sketch.</desc>
    <g id="you-lose" stroke="none" stroke-width="1" fill="none" fill-rule="evenodd">
        <path d="M251.977691,49.5639363 C255.73064,41.9141278 260.432276,36.0239258 265.931419,31.769387 C274.48922,25.1484484 283.510004,23.303352 291.169835,24.1151333 C291.614114,24.1622175 291.98435,24.2133327 292.275644,24.2619027 C308.520215,26.2225095 318.434239,34.349473 322.437315,46.4094772 C324.554566,52.788085 324.780314,59.3773272 323.927555,65.4533235 C323.755083,66.6822018 323.574376,67.6148972 323.443637,68.160847 C320.517713,80.7251103 313.70053,91.4995876 304.239076,100.555021 C299.790673,104.812529 295.040856,108.413061 290.284489,111.387385 C289.597698,111.816859 288.929747,112.221131 288.283149,112.600384 C292.63547,129.692151 291.263342,144.926981 286.200982,157.764428 C285.171098,160.37607 284.059041,162.676788 282.933509,164.654988 C282.224298,165.901474 281.638848,166.800256 281.267058,167.308809 C274.085862,177.269823 265.021359,181.6 252.4,181.6 C243.901817,181.6 236.647922,179.595921 230.675826,176.225167 C228.534377,175.016497 226.698036,173.706858 225.158584,172.374918 C224.59576,171.887961 224.104206,171.424684 223.682683,170.994477 C223.435423,170.742123 223.238536,170.528352 223.091244,170.359011 C217.211792,163.768524 213.682022,155.231085 212.060219,145.291142 C210.50741,135.774065 210.785988,125.758162 212.174568,116.188048 C212.260507,115.595754 212.34865,115.021749 212.438315,114.46705 C211.656934,114.072861 210.844541,113.648544 210.005218,113.193923 C204.938475,110.449513 199.873548,107.145552 195.121315,103.256677 C183.02024,93.3540566 174.943566,81.3749847 173.050586,67.1774802 C170.608003,48.4864058 177.138916,35.5721789 189.412892,28.291886 C193.004029,26.1618078 196.806633,24.6944239 200.60538,23.7534127 C201.938649,23.4231402 203.185014,23.1806315 204.318858,23.0116647 C205.03941,22.9042872 205.592173,22.8437357 206.029919,22.8114242 C224.237761,21.6862205 238.238464,29.7876378 248.194287,43.6561581 C249.575117,45.5796632 250.834065,47.5566252 251.977693,49.5639369 Z M385.256385,65.8003827 C410.015445,65.874367 426.468628,76.6711335 435.495269,94.3745465 C438.617061,100.49713 440.605745,106.99761 441.708924,113.488404 C442.094933,115.759575 442.343947,117.875871 442.483365,119.789895 C442.569883,120.977681 442.6,121.863672 442.6,122.4 C442.6,135.073717 440.241326,145.770028 435.737402,154.540828 L435.682827,154.644599 C432.765052,160.063322 428.828016,164.854425 424.139281,169.059402 C420.540797,172.286613 416.705144,174.989835 412.864208,177.204979 C411.511808,177.984934 410.248484,178.651303 409.102776,179.20727 C408.384809,179.555671 407.843581,179.798508 407.463781,179.956554 C402.264138,182.074927 397.005682,183.430623 391.932198,184.184789 C390.145779,184.450338 388.501525,184.622048 387.029518,184.71843 C386.107733,184.778785 385.421131,184.8 385,184.8 C357.300105,184.8 338.892314,174.125162 328.69812,156.390057 C325.145795,150.209986 322.878218,143.635046 321.61969,137.066568 C321.178548,134.764169 320.893779,132.617349 320.734189,130.673848 C320.634767,129.463077 320.6,128.555798 320.6,128 C320.6,98.5477722 332.990909,80.0674947 353.414885,71.219437 C364.145758,66.5706166 375.157441,65.2656952 384.332867,65.7421639 C384.706433,65.7615627 385.015502,65.7817821 385.256385,65.8003827 Z M383.8,126.2 C383.300687,126.2 382.744644,126.456233 382.30439,126.926334 C381.913693,127.343519 381.749003,127.779463 381.772973,128.031145 L381.784752,128.172518 C381.916656,130.019172 381.893316,130 383.8,130 C385.167767,130 385.6,129.606359 385.6,128.6 C385.6,127.070356 384.867796,126.2 383.8,126.2 Z M481.344819,66.2422409 C481.637682,66.270962 482.000566,66.3157759 482.426852,66.3809471 C483.368076,66.5248426 484.396813,66.7362911 485.493486,67.0290802 C488.600743,67.8586536 491.706872,69.184091 494.63363,71.1342557 C502.714051,76.5184236 507.691128,85.4630955 507.998583,98.069596 C508.01565,98.8547014 508.026,99.5641938 508.04287,100.961193 C508.07684,103.774124 508.096777,104.907071 508.149748,106.408967 C508.198776,107.799042 508.270389,109.059581 508.366648,110.194985 C508.464311,108.001856 508.521912,105.079842 508.567854,100.998013 C508.583415,99.5990645 508.591675,98.8636164 508.600175,98.1541998 C508.70351,84.6172507 514.09788,75.3052858 522.980406,70.1336819 C526.101612,68.3164463 529.400892,67.1638979 532.694176,66.5247569 C533.850783,66.3002894 534.933841,66.1547708 535.922925,66.0725042 C536.45122,66.0285635 536.884088,66.0077098 537.209851,66.0018122 C551.101264,65.29984 561.147125,70.4695445 567.380439,79.4477453 C569.400985,82.3580531 570.858058,85.446802 571.857714,88.538094 C572.210463,89.6289194 572.482825,90.651618 572.685966,91.585991 C572.787198,92.0516233 572.859443,92.4386244 572.907386,92.7377055 C576.037984,107.900098 574.695905,123.511427 570.583291,138.333055 C569.703825,141.502602 568.759262,144.383991 567.809851,146.929876 C567.281771,148.345945 566.849208,149.40487 566.556618,150.070784 C566.415041,150.441269 566.206269,150.947108 565.92559,151.57252 C565.38134,152.785226 564.711043,154.117925 563.905369,155.540967 C561.630357,159.559265 558.705478,163.563281 555.050362,167.304556 C544.214889,178.395445 529.353141,184.88545 510.255115,184.39825 C491.505188,183.945354 476.949808,179.817929 466.140887,173.119715 C461.980208,170.54137 458.643992,167.738872 456.056596,164.890167 C455.113606,163.85194 454.326218,162.86739 453.683726,161.95827 C453.36401,161.505877 453.112678,161.119287 452.925147,160.807269 C448.209182,153.841574 445.142893,145.523224 443.469054,136.165458 C441.374659,124.456524 441.563799,112.109941 443.125871,100.398725 C443.384887,98.4568206 443.663331,96.6966148 443.943369,95.1458086 C444.115436,94.192927 444.253343,93.5064254 444.347049,93.0797855 C447.056427,81.068212 453.406303,73.1347703 462.203348,69.0314146 C468.318455,66.1790409 474.603162,65.5326748 480.155409,66.0945369 C480.634544,66.1430231 481.033388,66.1945076 481.344819,66.2422409 Z M93.9400334,357.206194 C104.059791,353.282686 112.954796,352.251973 120.689147,353.897604 C129.300684,355.729872 135.832672,360.697523 140.440007,367.663979 C142.457459,370.71444 143.970006,373.945668 145.066159,377.17663 C145.451589,378.3127 145.75954,379.375656 145.998856,380.343615 C146.130447,380.875857 146.222924,381.302507 146.281452,381.609407 C147.912554,389.153471 145.822754,400.703034 139.166706,410.074365 C129.693885,423.41155 112.46728,431.433366 86.7692874,432.197611 C62.8878934,432.871683 45.2359021,424.58683 33.2774914,410.381708 C29.2561134,405.604805 26.1863636,400.498608 23.9310782,395.381604 C23.1351611,393.575753 22.4952664,391.887539 21.9954056,390.354905 C21.7475899,389.595072 21.5679256,388.980471 21.4489647,388.52956 C18.8108742,380.897991 17.2757574,371.837618 16.6577182,361.619953 C15.9425423,349.796386 16.4793621,337.218566 17.8073243,324.941679 C18.1272101,321.984365 18.470351,319.275503 18.8143216,316.869802 C18.935489,316.022367 19.0484312,315.271571 19.1503534,314.624286 C19.2128799,314.227194 19.2587793,313.947506 19.2902579,313.763203 C21.8725387,299.044202 28.0424288,288.786374 36.80067,282.578207 C40.8291575,279.722665 45.1408316,277.915955 49.4930769,276.954822 C52.3340218,276.327439 54.7780541,276.138087 56.6360474,276.196575 C69.3750885,275.868964 79.1133398,281.537118 85.5029196,291.941881 C90.5836149,300.215262 93.4132535,311.169108 94.498404,324.193406 C95.3887168,334.879204 95.0561044,346.190886 93.9400334,357.206194 Z M208.656385,314.800383 C233.415445,314.874367 249.868628,325.671133 258.895269,343.374547 C262.017061,349.49713 264.005745,355.99761 265.108924,362.488404 C265.494933,364.759575 265.743947,366.875871 265.883365,368.789895 C265.969883,369.977681 266,370.863672 266,371.4 C266,384.073717 263.641326,394.770028 259.137402,403.540828 L259.082827,403.644599 C256.165052,409.063322 252.228016,413.854425 247.539281,418.059402 C243.940797,421.286613 240.105144,423.989835 236.264208,426.204979 C234.911808,426.984934 233.648484,427.651303 232.502776,428.20727 C231.784809,428.555671 231.243581,428.798508 230.863781,428.956554 C225.664138,431.074927 220.405682,432.430623 215.332198,433.184789 C213.545779,433.450338 211.901525,433.622048 210.429518,433.71843 C209.507733,433.778785 208.821131,433.8 208.4,433.8 C180.700105,433.8 162.292314,423.125162 152.09812,405.390057 C148.545795,399.209986 146.278218,392.635046 145.01969,386.066568 C144.578548,383.764169 144.293779,381.617349 144.134189,379.673848 C144.034767,378.463077 144,377.555798 144,377 C144,347.547772 156.390909,329.067495 176.814885,320.219437 C187.545758,315.570617 198.557441,314.265695 207.732867,314.742164 C208.106433,314.761563 208.415502,314.781782 208.656385,314.800383 Z M207.2,375.2 C206.700687,375.2 206.144644,375.456233 205.70439,375.926334 C205.313693,376.343519 205.149003,376.779463 205.172973,377.031145 L205.184752,377.172518 C205.316656,379.019172 205.293316,379 207.2,379 C208.567767,379 209,378.606359 209,377.6 C209,376.070356 208.267796,375.2 207.2,375.2 Z M357.053401,363.788823 C361.391602,366.373767 364.976914,369.39748 367.847714,372.813482 C371.354078,376.985751 373.57768,381.498626 374.737396,386.086658 C375.522018,389.190758 375.732624,391.919238 375.609841,394.078566 C375.606506,394.137229 375.603006,394.193172 375.599386,394.246361 C375.510387,412.088486 365.747279,424.056009 350.165042,430.739216 C344.901868,432.996586 339.329708,434.491868 333.768037,435.389049 C331.825361,435.702432 330.016049,435.919817 328.380788,436.058589 C327.368828,436.144467 326.616491,436.185304 326.243044,436.195075 C297.822344,437.347266 279.906536,432.209831 270.523253,422.302427 C265.259136,416.744272 263.525994,410.781777 263.793217,405.889187 C263.395199,391.639287 271.946946,382.365251 285.58992,377.460304 C282.33093,375.522653 279.509964,373.367699 277.107795,371.014599 C272.958498,366.950059 270.265594,362.499353 268.803577,357.954191 C267.825442,354.913336 267.519313,352.277204 267.599352,350.264341 C267.602409,350.187465 267.605208,350.130151 267.608995,350.068373 C268.454742,332.529414 279.814271,321.42508 297.327956,315.740773 C303.059714,313.880452 309.127426,312.713051 315.228355,312.088704 C317.445732,311.861786 319.546522,311.720461 321.491539,311.648443 C322.817731,311.599338 323.906077,311.587725 324.716785,311.59786 C324.883888,311.600338 324.883888,311.600338 324.928313,311.601372 C361.044268,312.373906 375.70718,322.282826 374.792514,342.099626 C374.241471,353.120491 367.548051,360.120204 357.053398,363.788824 Z M477.440193,385.301014 C479.382434,385.820781 480.967429,386.474808 482.622846,387.419742 C487.547605,390.23086 490.473098,394.933629 491.343254,401.575155 C491.372065,401.776039 491.401472,402.029944 491.427421,402.333512 C491.825469,406.990037 490.865805,412.431896 487.413909,417.680516 C484.374245,422.302336 479.738877,426.03127 473.440043,428.566166 L473.303909,428.620952 L473.165259,428.669017 C472.701651,428.829735 471.908444,429.079113 470.809591,429.386436 C469.040037,429.881338 467.014089,430.372081 464.755539,430.827667 C446.534659,434.503109 426.352973,433.830047 406.625322,425.792028 C406.270996,425.654234 405.728057,425.419936 405.022916,425.081271 C403.918921,424.551044 402.707718,423.901209 401.415988,423.123414 C397.777183,420.932364 394.154703,418.133163 390.773203,414.654867 C380.598216,404.188619 374.737511,389.921873 375.400481,371.67612 C375.404775,371.104168 375.438405,370.213198 375.523958,369.044323 C375.672466,367.015306 375.937823,364.77096 376.349239,362.361949 C377.524942,355.477711 379.644157,348.58388 382.968932,342.094561 C389.193504,329.945394 398.897104,320.695843 412.635124,315.73085 C413.035315,315.592147 413.708681,315.37918 414.631956,315.117675 C416.114866,314.697659 417.79949,314.281384 419.662882,313.894896 C432.758219,311.178776 446.765208,311.251137 460.095488,316.055231 C467.131047,318.590773 473.613469,322.374217 479.345205,327.479452 C479.896358,327.960458 480.704326,328.762092 481.680442,329.885995 C483.228767,331.668743 484.759544,333.772559 486.179795,336.199423 C490.110198,342.915528 492.500958,350.855482 492.599717,359.94175 C492.712884,371.597898 487.105191,380.399248 477.440193,385.301014 Z M441.8,363.2 C441.300687,363.2 440.744644,363.456233 440.30439,363.926334 C439.913693,364.343519 439.749003,364.779463 439.772973,365.031145 L439.784752,365.172518 C439.916656,367.019172 439.893316,367 441.8,367 C443.167767,367 443.6,366.606359 443.6,365.6 C443.6,364.070356 442.867796,363.2 441.8,363.2 Z M639.4,342.4 C639.4,359.043324 628.227507,370.8 610.6,370.8 C593.572493,370.8 582.2,358.832867 582.2,342.4 C582.2,326.070575 593.647548,313.8 610.6,313.8 C628.152452,313.8 639.4,325.856195 639.4,342.4 Z M639.4,405.2 C639.4,421.843324 628.227507,433.6 610.6,433.6 C593.572493,433.6 582.2,421.632867 582.2,405.2 C582.2,388.704837 593.609939,376.4 610.6,376.4 C628.190061,376.4 639.4,388.48915 639.4,405.2 Z M669.746746,271.564127 C679.352077,256.148167 695.066686,250.030082 712.631583,257.714801 C720.615499,261.254063 725.684803,266.862238 727.971571,273.826625 C729.821052,279.459248 729.694688,285.25227 728.416779,290.71011 C728.073051,292.178144 727.715026,293.321148 727.431692,294.071019 C720.657317,313.203077 717.746438,332.23541 718.055743,350.869169 C718.298043,365.46632 720.488775,379.024115 723.98427,391.209206 C725.278737,395.721644 726.660963,399.714186 728.035605,403.1373 C728.509743,404.317992 728.946285,405.338187 729.333246,406.191702 C729.553777,406.678122 729.700838,406.985758 729.762416,407.10844 L729.817596,407.218375 L729.868224,407.33048 C729.974905,407.566704 730.116861,407.910756 730.281058,408.354549 C730.531437,409.031278 730.776415,409.789153 731.002366,410.620625 C732.512174,416.176539 732.555137,422.140801 730.057974,427.915409 C727.331399,434.220525 721.883424,439.253407 713.628344,442.57086 C701.894373,447.264449 690.370902,444.749529 680.180426,436.872023 C672.60153,431.013337 666.059526,422.327501 661.986691,413.78768 C651.219083,391.262339 646.822418,368.194625 647.766887,345.12648 C648.508563,327.01145 652.478572,309.85899 658.633606,294.115384 C661.039235,287.962164 663.620853,282.443829 666.211328,277.632402 C667.126391,275.932806 667.98078,274.43798 668.753745,273.157011 C669.194317,272.42689 669.530687,271.893555 669.746746,271.564127 Z" id="You-Lose-:(" stroke="#390060" stroke-width="12" fill="#FFFFFF"></path>
        <ellipse id="Oval" fill="#390060" cx="385" cy="129.5" rx="6" ry="6.5"></ellipse>
        <ellipse id="Oval" fill="#390060" cx="441" cy="366.5" rx="6" ry="6.5"></ellipse>
    </g>
</svg>