<?xml version="1.0" encoding="UTF-8"?>
<svg width="1026px" height="1026px" viewBox="0 0 1026 1026" version="1.1" xmlns="http://www.w3.org/2000/svg" xmlns:xlink="http://www.w3.org/1999/xlink">
    <!-- Generator: Sketch 52.6 (67491) - http://www.bohemiancoding.com/sketch -->
    <title>machine</title>
    <desc>Created with Sketch.</desc>
    <defs>
        <path d="M-4.54747351e-13,68 L-4.54747351e-13,190.332226 C16,244.777409 50.6666667,272 104,272 C157.333333,272 189.333333,244.777409 200,190.332226 C221.333333,244.777409 261.333333,272 320,272 C378.666667,272 413.842105,244.777409 425.526316,190.332226 C444.508772,244.777409 488.333333,272 557,272 C625.666667,272 660.333333,244.777409 661,190.332226 C680.333333,244.777409 718.333333,272 775,272 C831.666667,272 856.666667,244.777409 850,190.332226 L850,68 C742,22.6666667 608.666667,-8.52651283e-14 450,-8.52651283e-14 C291.333333,-7.9054879e-14 141.333333,22.6666667 -4.54747351e-13,68 Z" id="path-1"></path>
        <rect id="path-3" x="0" y="0" width="212" height="203" rx="16"></rect>
        <linearGradient x1="100%" y1="-36.677957%" x2="0%" y2="100%" id="linearGradient-5">
            <stop stop-color="#FF5B5E" offset="0%"></stop>
            <stop stop-color="#FF87DB" offset="100%"></stop>
        </linearGradient>
    </defs>
    <g id="machine" stroke="none" stroke-width="1" fill="none" fill-rule="evenodd">
        <rect id="Rectangle" stroke="#979797" fill="#E753BB" x="90.5" y="170.5" width="827" height="620"></rect>
        <circle id="Oval" fill="#89E9FF" cx="455.19348" cy="720.5" r="67.5"></circle>
        <circle id="Oval" fill="#FAFF7F" cx="614.5" cy="716.5" r="67.5"></circle>
        <circle id="Oval" fill="#7F96FF" cx="765.80652" cy="716.5" r="67.5"></circle>
        <rect id="Rectangle" fill="#D43164" x="146" y="653" width="224" height="142"></rect>
        <path d="M259.452379,625.470807 C256.363039,619.793349 251.123591,613.584076 245.499506,610.150376 C221.859675,595.717435 196.534629,590.219737 174.712878,609.016075 C158.413577,623.055607 169.239766,661.666648 173.224425,673.882592 C183.207539,704.488259 223.246414,739.573718 252.997473,749.261486 C257.551572,750.744427 351.5,711.5 356.975679,661.869723 C358.213422,650.651107 360.557387,639.22012 358.51055,627.941926 C353.470703,600.172071 308.081762,596.472273 288.423279,605.488132 C279.473071,609.592915 269.816104,616.253807 259.452379,625.470807 Z" id="Path-7" fill="#FF5B5E"></path>
        <rect id="Rectangle" fill="#A1006C" x="357.69348" y="642" width="12.613482" height="149" rx="6"></rect>
        <rect id="Rectangle" fill="#A1006C" x="155" y="649" width="13" height="142" rx="6"></rect>
        <rect id="Rectangle" fill="#FFD2F2" x="90" y="170" width="65" height="653"></rect>
        <rect id="Rectangle" fill="#FFD2F2" x="853" y="202" width="65" height="621"></rect>
        <path d="M72.9745565,816.500166 L9.72105571,998.092197 C5.90598135,1009.04475 11.6920482,1021.01627 22.6445978,1024.83135 C24.8655155,1025.60495 27.2006053,1026 29.552401,1026 L993.021312,1026 C1004.61929,1026 1014.02131,1016.59798 1014.02131,1005 C1014.02131,1002.02887 1013.39085,999.091557 1012.17157,996.382132 L929.82979,813.405762 C923.693355,799.76964 910.130193,791 895.176944,791 L108.859848,791 C92.6911805,791 78.2931266,801.231288 72.9745565,816.500166 Z" id="Path-2" fill="#FF87DB"></path>
        <g id="Rectangle-+-Rectangle-+-Rectangle-+-Rectangle-+-Rectangle-Mask" transform="translate(78.000000, 66.000000)">
            <mask id="mask-2" fill="white">
                <use xlink:href="#path-1"></use>
            </mask>
            <use id="Mask" fill="#FF87DB" xlink:href="#path-1"></use>
            <rect id="Rectangle" fill="#FAFF7F" mask="url(#mask-2)" x="0" y="0" width="54" height="291"></rect>
            <rect id="Rectangle" fill="#FAFF7F" mask="url(#mask-2)" x="116" y="0" width="54" height="291"></rect>
            <rect id="Rectangle" fill="#FAFF7F" mask="url(#mask-2)" x="232" y="0" width="54" height="291"></rect>
            <rect id="Rectangle" fill="#FAFF7F" mask="url(#mask-2)" x="348" y="0" width="54" height="291"></rect>
            <rect id="Rectangle" fill="#FAFF7F" mask="url(#mask-2)" x="464" y="0" width="54" height="291"></rect>
            <rect id="Rectangle" fill="#FAFF7F" mask="url(#mask-2)" x="580" y="0" width="54" height="291"></rect>
            <rect id="Rectangle" fill="#FAFF7F" mask="url(#mask-2)" x="696" y="0" width="54" height="291"></rect>
            <rect id="Rectangle" fill="#FAFF7F" mask="url(#mask-2)" x="812" y="0" width="54" height="291"></rect>
            <rect id="Rectangle" fill="#FAFF7F" mask="url(#mask-2)" x="928" y="0" width="54" height="291"></rect>
        </g>
        <g id="Rectangle-+-Rectangle-Mask" transform="translate(155.000000, 823.000000)">
            <mask id="mask-4" fill="white">
                <use xlink:href="#path-3"></use>
            </mask>
            <use id="Mask" fill="#D43164" xlink:href="#path-3"></use>
            <rect id="Rectangle" fill="#A1006C" mask="url(#mask-4)" x="0" y="-6" width="13" height="209"></rect>
            <rect id="Rectangle" fill="#A1006C" mask="url(#mask-4)" x="199" y="-6" width="13" height="209"></rect>
        </g>
        <g id="Group-3" transform="translate(218.000000, 633.000000)">
            <g id="Group-2">
                <path d="M33.002138,11.8400383 L9.49928746,47.9499747 C6.78784324,52.1158556 7.9668972,57.6910293 12.1327782,60.4024735 C13.5936589,61.3533159 15.2992177,61.8594787 17.0422822,61.8594787 L64.0479833,61.8594787 C69.018546,61.8594787 73.0479833,57.8300415 73.0479833,52.8594787 C73.0479833,51.1164142 72.5418205,49.4108554 71.590978,47.9499747 L48.0881275,11.8400383 C45.3766833,7.67415737 39.8015097,6.49510341 35.6356287,9.20654763 C34.5837847,9.89116067 33.686751,10.7881943 33.002138,11.8400383 Z" id="Path-6" stroke="#FAFF7F" stroke-width="6"></path>
                <path d="M36.436967,35.0356748 C35.9701069,33.1810416 36.2996552,29.9627075 36.2996552,29.9627075 C36.2996552,29.9627075 36.6017412,25.5988648 40.8858694,25.5988648 C40.8858694,25.5988648 44.3461269,25.6806868 45.2523848,29.3899532 C46.103718,32.9083014 45.2523848,36.0448134 45.2523848,36.0448134 C45.2523848,36.0448134 44.3186645,39.3995175 40.8858694,39.3995175 C37.0136766,39.3995175 36.436967,35.0356748 36.436967,35.0356748 Z M44.428514,44.0633745 C44.428514,45.6998155 42.835697,47.0089684 40.8584071,47.0089684 C38.9085795,47.0089684 37.3157626,45.6998155 37.3157626,44.0633745 C37.3157626,42.4269334 38.9085795,41.1177806 40.8584071,41.1177806 C42.835697,41.1177806 44.428514,42.4269334 44.428514,44.0633745 Z" id="!" fill="#FAFF7F"></path>
            </g>
        </g>
        <text id="DANGER!" font-family="Sniglet-Regular, Sniglet" font-size="28" font-weight="normal" letter-spacing="3.20000005" fill="#FF5B5E">
            <tspan x="198.546" y="776">DANGER</tspan>
            <tspan x="318.21" y="776">!</tspan>
        </text>
        <path d="M186.977892,142.552255 C176.403897,145.045141 167.8212,143.956993 161.226582,140.567927 C159.780988,139.825016 158.545582,139.022304 157.515711,138.209994 C156.867524,137.698736 156.41509,137.277519 156.151316,136.993529 C152.343567,132.886646 149.602462,127.274265 147.385412,119.999609 C146.748746,117.910559 146.167119,115.729039 145.560692,113.218287 C145.327291,112.251947 145.099283,111.276337 144.816931,110.044093 C144.780997,109.887268 144.284924,107.71205 144.146258,107.111422 C142.343921,99.3046428 141.132377,91.6594675 140.399496,84.4875816 C140.142621,81.9738332 139.963874,79.6966864 139.849438,77.6952461 C139.809186,76.9912452 139.779846,76.3709387 139.759699,75.8392217 C139.747412,75.5149357 139.74088,75.289081 139.741504,75.2504509 C139.165076,64.5742364 143.716513,56.9617339 151.53205,52.1357697 C154.062613,50.5731891 156.75622,49.4218743 159.448857,48.6121465 C160.993995,48.1474938 162.231894,47.8802495 163.023533,47.7590468 C179.784888,43.7738786 193.373197,45.8570673 203.829188,51.8107683 C206.185218,53.1523052 208.190792,54.5957329 209.854077,56.0484564 C210.805789,56.8796879 211.476334,57.5600349 211.872786,58.0169435 C212.398601,58.537741 213.205337,59.4439142 214.200995,60.7410491 C215.923192,62.9847121 217.636435,65.6798462 219.229738,68.8323645 C224.361296,78.9857007 227.128397,91.4784078 226.314044,106.330576 L226.313824,106.334532 C225.568309,119.548153 218.139008,129.182545 206.399909,135.699836 C202.129823,138.070494 197.575385,139.859595 193.022988,141.155165 C191.429487,141.608661 189.94725,141.968788 188.612181,142.245522 C187.880569,142.397171 187.327072,142.497069 186.977892,142.552255 Z M184.342039,90.9061702 C182.265495,90.6512027 181.639945,91.0862978 181.346251,93.4782474 C181.09971,95.4861594 181.411919,95.7763802 183.709415,96.0584772 C185.309131,96.2548977 186.323577,95.5359762 186.498558,94.1108711 C186.705233,92.4276415 185.833696,91.0893226 184.342039,90.9061702 Z M302.205492,71.8399547 C310.498732,77.7214063 315.120648,83.922426 316.530247,90.2997441 C317.70641,95.6209499 316.576805,100.557658 314.004377,104.878408 C313.358288,105.963603 312.665426,106.927699 311.968017,107.764142 C311.536069,108.282202 311.185229,108.65484 311.013901,108.817371 C302.332298,117.701264 292.458687,116.421336 282.949844,108.201604 C280.520387,106.101507 278.212344,103.634555 276.054234,100.938758 C275.732416,107.153696 273.114915,111.904088 268.807901,115.24078 C267.234055,116.460056 265.556529,117.382514 263.876283,118.054633 C262.849805,118.465237 262.02593,118.706596 261.59458,118.796402 C252.515217,121.098934 245.214928,118.178639 239.815647,112.012328 C238.406024,110.402452 237.236248,108.686153 236.287271,106.967643 C235.710387,105.922959 235.327915,105.091151 235.155585,104.64655 C227.336331,86.3219668 225.587026,69.3065341 227.273883,55.5089278 C227.466072,53.9369232 227.661802,52.7958122 227.806288,52.1247908 C229.523958,39.452724 236.023417,30.7534208 245.695711,25.4902345 C249.660762,23.3326492 253.886874,21.9075306 258.109938,21.0660349 C260.572378,20.5753644 262.526244,20.3707761 263.735361,20.3290157 C278.439411,18.6143251 289.417158,22.8461622 297.013932,30.9667524 C299.266553,33.3746969 301.043992,35.9521812 302.401919,38.5353942 C303.228486,40.1077905 303.739273,41.3579379 303.986211,42.1277843 L303.992517,42.1477311 C307.11456,52.1684704 306.490018,61.2065593 303.541071,68.8383215 C303.115509,69.9396617 302.66456,70.9415233 302.205492,71.8399547 Z M268.444745,58.7723581 C266.989245,58.951071 265.84622,60.5172794 266.132174,61.8167646 C266.507607,63.7329081 267.17736,64.157957 269.077369,63.9246652 C270.677085,63.7282448 271.487475,62.7852616 271.312494,61.3601565 C271.105819,59.6769268 269.936402,58.5892057 268.444745,58.7723581 Z M368.75177,11.9072064 C387.764747,11.9435033 400.184549,20.7349372 407.014328,35.2055323 C409.382553,40.2232069 410.897302,45.5721655 411.738116,50.9165902 C412.032238,52.7861034 412.221613,54.5248064 412.327204,56.0908461 C412.391579,57.0456031 412.413492,57.7420482 412.413492,58.1380936 C412.413492,80.2414736 404.207201,94.7050613 390.539865,102.734621 C385.762481,105.541335 380.662038,107.339241 375.563949,108.337616 C373.77781,108.687402 372.115419,108.912784 370.616329,109.0386 C369.697825,109.115689 369.023669,109.142094 368.633492,109.142094 C347.373792,109.142094 333.474276,100.442026 325.791888,86.0162086 C323.118688,80.9965331 321.407573,75.6413777 320.4576,70.2898619 C320.125058,68.4165454 319.910879,66.6737607 319.791399,65.1032634 C319.718405,64.1437938 319.693492,63.442096 319.693492,63.0400936 C319.693492,38.7195882 328.947767,23.7070989 344.345977,16.435722 C352.542362,12.5652065 361.010987,11.46679 368.011874,11.8560732 C368.327903,11.8736459 368.576053,11.8917532 368.75177,11.9072064 Z M366.372165,57.7973409 C364.905735,57.7973409 363.580357,59.2125753 363.705812,60.5372233 C363.844927,62.4848379 364.457887,62.9883409 366.372165,62.9883409 C367.983894,62.9883409 368.903165,62.1511483 368.903165,60.7153409 C368.903165,59.0194705 367.875024,57.7973409 366.372165,57.7973409 Z M512.808225,39.6187282 C513.4139,57.5115935 505.287159,68.2801739 491.600573,73.0309595 C485.746727,75.0629029 479.694844,75.7544161 474.281303,75.6391703 C476.08191,87.0223578 472.89304,94.5936304 466.296088,98.7048478 C464.453807,99.8529567 462.495741,100.621912 460.538615,101.089769 C459.396735,101.362739 458.474595,101.486979 457.868523,101.521571 C447.751341,102.533529 440.006033,98.6364135 434.518237,91.6115074 C432.831251,89.4520027 431.48606,87.1489861 430.44272,84.8443054 C429.810317,83.4473607 429.412863,82.3397896 429.223312,81.6823263 C424.683991,66.4536343 424.80115,51.0996878 427.717058,37.1295669 C428.161182,35.0017675 428.638085,33.0932602 429.116717,31.4296374 C429.408241,30.4163619 429.639332,29.6999741 429.772677,29.3244082 C433.40843,18.8211223 440.250076,11.7845962 449.290181,7.72904166 C456.661691,4.4220495 464.278547,3.49806797 470.618688,3.85573127 C470.953642,3.87462687 471.211328,3.89415436 471.385859,3.91031514 C488.685244,4.50982941 500.273066,11.0914767 506.981121,21.690141 C509.452694,25.5952033 511.069832,29.7650877 512.005432,33.9341919 C512.333599,35.396531 512.553672,36.7586549 512.686143,37.9886803 C512.766231,38.7323172 512.800652,39.2857045 512.808225,39.6187282 Z M471.372165,39.7973409 C469.905735,39.7973409 468.580357,41.2125753 468.705812,42.5372233 C468.844927,44.4848379 469.457887,44.9883409 471.372165,44.9883409 C472.983894,44.9883409 473.903165,44.1511483 473.903165,42.7153409 C473.903165,41.0194705 472.875024,39.7973409 471.372165,39.7973409 Z M626.269386,36.1061695 C626.348237,35.4863464 626.447902,34.7994329 626.571785,34.0552588 C627.147371,30.5976784 628.0638,27.1359355 629.405902,23.8793584 C633.617758,13.659391 641.073708,7.60312862 652.267932,8.38597274 C653.043055,8.44590489 654.263,8.67154809 655.783936,9.17115265 C658.265546,9.98632443 660.739425,11.2960388 663.044104,13.2108034 C668.989273,18.1501443 672.716644,26.1501006 673.251802,37.6724358 C673.806839,49.5545019 673.166998,61.3885786 671.760794,72.459132 C671.39147,75.3666843 670.995419,77.9970428 670.598765,80.3058234 C670.45938,81.1171345 670.329652,81.8312862 670.21284,82.4427207 C670.152158,82.7603537 670.10567,82.9948584 670.075409,83.1427656 C669.955653,83.9104527 669.695356,85.1426443 669.252721,86.6924375 C668.495453,89.3438495 667.450398,91.9972858 666.062224,94.4930552 C661.665695,102.397485 654.847458,107.009464 645.372485,106.281173 C635.490917,105.465172 629.331779,99.0322778 626.264508,89.1664695 C625.272591,85.9759889 624.661305,82.5920905 624.353011,79.1671684 C624.22682,77.7652713 624.159959,76.4686572 624.136827,75.3126084 L623.980407,75.3016705 C623.842476,76.0074555 623.680557,76.7572928 623.492763,77.543497 C622.683169,80.9329004 621.560384,84.3252941 620.064762,87.5133149 C615.41768,97.4188894 608.190097,103.333467 598.009478,102.710317 C597.233772,102.692529 596.034225,102.551084 594.542892,102.185205 C592.024663,101.567392 589.50856,100.485083 587.155076,98.8202808 C580.694822,94.2504409 576.786174,86.3040966 576.593704,74.4729431 C576.422272,60.8769744 577.230903,48.9214504 578.686772,38.7381825 C579.151576,35.4870453 579.650661,32.6548166 580.151266,30.2544217 C580.327848,29.4077122 580.492526,28.6738136 580.641205,28.0543392 C580.717823,27.7351095 580.777426,27.4986491 580.8176,27.3459096 C580.970839,26.6123867 581.277324,25.4381734 581.766089,23.9625786 C582.606016,21.4268138 583.70728,18.8895133 585.110615,16.503807 C589.524817,8.99954394 595.931623,4.57580153 604.498183,5.17483375 C615.227422,5.92509522 621.706267,12.3905046 624.602595,22.3554815 C625.950485,26.9929698 626.384439,31.7882296 626.269386,36.1061695 Z M681.256345,79.3545144 C681.3601,75.9432913 681.73762,72.0024788 682.348027,67.628693 C682.82761,64.1923139 683.440321,60.5649455 684.155045,56.8304021 C684.791425,53.5052164 685.472941,50.2782888 686.154631,47.2733344 C686.393422,46.2207235 686.615315,45.2704908 686.814687,44.4381788 C686.884687,44.1459532 686.946943,43.8890657 687.000751,43.6694617 C687.033373,43.5363223 687.055698,43.4461479 687.046569,43.4904593 C687.226567,42.6293085 687.606228,41.1879942 688.221852,39.355423 C689.243906,36.3130058 690.575525,33.2690697 692.261329,30.4106258 C698.024826,20.6380625 706.470633,15.3134625 717.790377,17.2420834 C718.475608,17.3629079 719.554661,17.6591786 720.899393,18.2045337 C723.093799,19.0944739 725.281183,20.3826841 727.322172,22.1460872 C733.591346,27.5626185 737.080382,36.1386789 736.445738,48.3149678 C735.901407,57.8878967 734.555182,67.455024 732.651924,76.6919123 C731.765274,80.9950009 730.814877,84.9444744 729.863458,88.4557253 C729.529491,89.6882458 729.21883,90.7791851 728.939303,91.717935 C728.840807,92.0487195 728.753036,92.3374541 728.676968,92.5828113 C728.643575,92.6905195 728.617193,92.7745972 728.598183,92.8345559 C728.411609,93.5195619 728.049999,94.6145472 727.489009,95.9892052 C726.532245,98.3336764 725.310009,100.678268 723.788106,102.880384 C718.449007,110.605788 710.8385,114.688557 700.898289,112.867383 C691.374208,111.068742 685.534599,104.885308 682.798287,95.945723 C681.191535,90.6964335 680.831292,85.2373073 681.16261,80.4422896 C681.195473,79.9666856 681.229143,79.5998567 681.256345,79.3545144 Z M791.221122,28.8283767 C801.852462,31.5267813 807.606102,38.5566104 809.34085,48.1768135 C809.554067,49.3592272 809.701403,50.5559058 809.7889,51.7604244 C810.673585,50.5293457 811.637545,49.3235877 812.681116,48.1702248 C819.245964,40.9147048 827.47595,37.6015147 837.208092,40.0280102 C844.415577,41.825038 849.819696,46.6614624 853.663217,53.4966984 C855.357006,56.5088956 856.635294,59.7159081 857.562992,62.9209868 C858.121839,64.8517343 858.443135,66.3709735 858.57627,67.2429799 C858.698659,67.9685359 858.812414,68.700032 858.917664,69.4372924 C860.599617,81.2190948 860.087722,93.7620971 858.219827,105.833387 C857.847046,108.242483 857.447231,110.434196 857.046648,112.368222 C856.905727,113.048591 856.77448,113.649251 856.656183,114.165148 C856.583961,114.480109 856.531255,114.700118 856.523571,114.722678 C854.212636,125.872558 849.651447,133.061242 843.416587,136.811377 C838.694219,139.65178 833.72558,140.190473 829.279621,139.419051 C828.658538,139.311287 828.181882,139.198549 827.869873,139.107936 C816.232415,136.183348 810.27912,127.164893 808.839613,114.368718 C808.458383,110.979861 808.407753,107.477053 808.619534,103.954053 C804.701532,108.033639 800.403116,109.064644 796.638007,108.213906 C796.295642,108.136548 796.011675,108.053512 795.790504,107.975948 C790.404897,106.585971 787.054676,102.932574 785.441309,97.8280721 C782.763941,104.302571 779.589493,109.377482 775.989182,113.174114 C769.358583,120.166274 762.239386,122.11609 756.208495,121.190092 C755.726512,121.116087 755.363417,121.036255 755.200756,120.989544 C744.705011,118.37266 738.626998,112.230657 736.368509,103.778278 C735.042321,98.8150296 735.148277,93.6008049 736.110203,88.6653041 C736.369584,87.3344582 736.63339,86.3199925 736.827514,85.6992411 C738.987225,77.0601067 741.998316,68.9360199 745.644817,61.3846537 C748.371065,55.7389969 751.294191,50.733751 754.222212,46.4200349 C755.25171,44.9033247 756.210319,43.5791836 757.074144,42.4540433 C757.569491,41.8088495 757.938722,41.35111 758.162018,41.086197 C760.218157,38.42587 762.412539,36.1760472 764.728798,34.3168156 C772.791519,27.8449716 781.385152,26.5431787 789.016716,28.2187239 C789.989632,28.4323319 790.734525,28.6528318 791.221122,28.8283767 Z" id="DROP-HIM" stroke="#FFFFFF" stroke-width="5" fill="url(#linearGradient-5)"></path>
    </g>
</svg>