<?xml version="1.0" encoding="UTF-8"?>
<svg width="1026px" height="1026px" viewBox="0 0 1026 1026" version="1.1" xmlns="http://www.w3.org/2000/svg" xmlns:xlink="http://www.w3.org/1999/xlink">
    <!-- Generator: Sketch 52.6 (67491) - http://www.bohemiancoding.com/sketch -->
    <title>machine</title>
    <desc>Created with Sketch.</desc>
    <defs>
        <path d="M-4.54747351e-13,68 L-4.54747351e-13,190.332226 C16,244.777409 50.6666667,272 104,272 C157.333333,272 189.333333,244.777409 200,190.332226 C221.333333,244.777409 261.333333,272 320,272 C378.666667,272 413.842105,244.777409 425.526316,190.332226 C444.508772,244.777409 488.333333,272 557,272 C625.666667,272 660.333333,244.777409 661,190.332226 C680.333333,244.777409 718.333333,272 775,272 C831.666667,272 856.666667,244.777409 850,190.332226 L850,68 C742,22.6666667 608.666667,-8.52651283e-14 450,-8.52651283e-14 C291.333333,-7.9054879e-14 141.333333,22.6666667 -4.54747351e-13,68 Z" id="path-1"></path>
        <linearGradient x1="100%" y1="-36.677957%" x2="0%" y2="100%" id="linearGradient-3">
            <stop stop-color="#FF5B5E" offset="0%"></stop>
            <stop stop-color="#FF87DB" offset="100%"></stop>
        </linearGradient>
    </defs>
    <g id="machine" stroke="none" stroke-width="1" fill="none" fill-rule="evenodd">
        <g id="Group" transform="translate(78.000000, 6.000000)">
            <g id="Rectangle-+-Rectangle-+-Rectangle-+-Rectangle-+-Rectangle-Mask" transform="translate(0.000000, 60.000000)">
                <mask id="mask-2" fill="white">
                    <use xlink:href="#path-1"></use>
                </mask>
                <use id="Mask" fill="#FF87DB" xlink:href="#path-1"></use>
                <rect id="Rectangle" fill="#FAFF7F" mask="url(#mask-2)" x="0" y="0" width="54" height="291"></rect>
                <rect id="Rectangle" fill="#FAFF7F" mask="url(#mask-2)" x="116" y="0" width="54" height="291"></rect>
                <rect id="Rectangle" fill="#FAFF7F" mask="url(#mask-2)" x="232" y="0" width="54" height="291"></rect>
                <rect id="Rectangle" fill="#FAFF7F" mask="url(#mask-2)" x="348" y="0" width="54" height="291"></rect>
                <rect id="Rectangle" fill="#FAFF7F" mask="url(#mask-2)" x="464" y="0" width="54" height="291"></rect>
                <rect id="Rectangle" fill="#FAFF7F" mask="url(#mask-2)" x="580" y="0" width="54" height="291"></rect>
                <rect id="Rectangle" fill="#FAFF7F" mask="url(#mask-2)" x="696" y="0" width="54" height="291"></rect>
                <rect id="Rectangle" fill="#FAFF7F" mask="url(#mask-2)" x="812" y="0" width="54" height="291"></rect>
                <rect id="Rectangle" fill="#FAFF7F" mask="url(#mask-2)" x="928" y="0" width="54" height="291"></rect>
            </g>
            <path d="M108.977892,136.552255 C98.4038967,139.045141 89.8211998,137.956993 83.2265818,134.567927 C81.7809879,133.825016 80.5455819,133.022304 79.515711,132.209994 C78.8675235,131.698736 78.4150904,131.277519 78.1513159,130.993529 C74.3435666,126.886646 71.6024622,121.274265 69.3854119,113.999609 C68.7487457,111.910559 68.1671186,109.729039 67.5606925,107.218287 C67.3272906,106.251947 67.0992834,105.276337 66.8169308,104.044093 C66.7809966,103.887268 66.284924,101.71205 66.1462583,101.111422 C64.3439212,93.3046428 63.1323773,85.6594675 62.3994962,78.4875816 C62.1426211,75.9738332 61.9638739,73.6966864 61.8494381,71.6952461 C61.8091856,70.9912452 61.7798464,70.3709387 61.7596994,69.8392217 C61.7474121,69.5149357 61.7408802,69.289081 61.7415036,69.2504509 C61.1650758,58.5742364 65.7165131,50.9617339 73.5320504,46.1357697 C76.0626134,44.5731891 78.7562204,43.4218743 81.4488574,42.6121465 C82.9939951,42.1474938 84.2318942,41.8802495 85.0235325,41.7590468 C101.784888,37.7738786 115.373197,39.8570673 125.829188,45.8107683 C128.185218,47.1523052 130.190792,48.5957329 131.854077,50.0484564 C132.805789,50.8796879 133.476334,51.5600349 133.872786,52.0169435 C134.398601,52.537741 135.205337,53.4439142 136.200995,54.7410491 C137.923192,56.9847121 139.636435,59.6798462 141.229738,62.8323645 C146.361296,72.9857007 149.128397,85.4784078 148.314044,100.330576 L148.313824,100.334532 C147.568309,113.548153 140.139008,123.182545 128.399909,129.699836 C124.129823,132.070494 119.575385,133.859595 115.022988,135.155165 C113.429487,135.608661 111.94725,135.968788 110.612181,136.245522 C109.880569,136.397171 109.327072,136.497069 108.977892,136.552255 Z M106.342039,84.9061702 C104.265495,84.6512027 103.639945,85.0862978 103.346251,87.4782474 C103.09971,89.4861594 103.411919,89.7763802 105.709415,90.0584772 C107.309131,90.2548977 108.323577,89.5359762 108.498558,88.1108711 C108.705233,86.4276415 107.833696,85.0893226 106.342039,84.9061702 Z M224.205492,65.8399547 C232.498732,71.7214063 237.120648,77.922426 238.530247,84.2997441 C239.70641,89.6209499 238.576805,94.557658 236.004377,98.8784076 C235.358288,99.9636034 234.665426,100.927699 233.968017,101.764142 C233.536069,102.282202 233.185229,102.65484 233.013901,102.817371 C224.332298,111.701264 214.458687,110.421336 204.949844,102.201604 C202.520387,100.101507 200.212344,97.6345546 198.054234,94.9387582 C197.732416,101.153696 195.114915,105.904088 190.807901,109.24078 C189.234055,110.460056 187.556529,111.382514 185.876283,112.054633 C184.849805,112.465237 184.02593,112.706596 183.59458,112.796402 C174.515217,115.098934 167.214928,112.178639 161.815647,106.012328 C160.406024,104.402452 159.236248,102.686153 158.287271,100.967643 C157.710387,99.9229588 157.327915,99.0911505 157.155585,98.6465499 C149.336331,80.3219668 147.587026,63.3065341 149.273883,49.5089278 C149.466072,47.9369232 149.661802,46.7958122 149.806288,46.1247908 C151.523958,33.452724 158.023417,24.7534208 167.695711,19.4902345 C171.660762,17.3326492 175.886874,15.9075306 180.109938,15.0660349 C182.572378,14.5753644 184.526244,14.3707761 185.735361,14.3290157 C200.439411,12.6143251 211.417158,16.8461622 219.013932,24.9667524 C221.266553,27.3746969 223.043992,29.9521812 224.401919,32.5353942 C225.228486,34.1077905 225.739273,35.3579379 225.986211,36.1277843 L225.992517,36.1477311 C229.11456,46.1684704 228.490018,55.2065593 225.541071,62.8383215 C225.115509,63.9396617 224.66456,64.9415233 224.205492,65.8399547 Z M190.444745,52.7723581 C188.989245,52.951071 187.84622,54.5172794 188.132174,55.8167646 C188.507607,57.7329081 189.17736,58.157957 191.077369,57.9246652 C192.677085,57.7282448 193.487475,56.7852616 193.312494,55.3601565 C193.105819,53.6769268 191.936402,52.5892057 190.444745,52.7723581 Z M290.75177,5.90720644 C309.764747,5.94350326 322.184549,14.7349372 329.014328,29.2055323 C331.382553,34.2232069 332.897302,39.5721655 333.738116,44.9165902 C334.032238,46.7861034 334.221613,48.5248064 334.327204,50.0908461 C334.391579,51.0456031 334.413492,51.7420482 334.413492,52.1380936 C334.413492,74.2414736 326.207201,88.7050613 312.539865,96.7346215 C307.762481,99.5413347 302.662038,101.339241 297.563949,102.337616 C295.77781,102.687402 294.115419,102.912784 292.616329,103.0386 C291.697825,103.115689 291.023669,103.142094 290.633492,103.142094 C269.373792,103.142094 255.474276,94.4420261 247.791888,80.0162086 C245.118688,74.9965331 243.407573,69.6413777 242.4576,64.2898619 C242.125058,62.4165454 241.910879,60.6737607 241.791399,59.1032634 C241.718405,58.1437938 241.693492,57.442096 241.693492,57.0400936 C241.693492,32.7195882 250.947767,17.7070989 266.345977,10.435722 C274.542362,6.56520655 283.010987,5.46679004 290.011874,5.85607319 C290.327903,5.87364587 290.576053,5.8917532 290.75177,5.90720644 Z M288.372165,51.7973409 C286.905735,51.7973409 285.580357,53.2125753 285.705812,54.5372233 C285.844927,56.4848379 286.457887,56.9883409 288.372165,56.9883409 C289.983894,56.9883409 290.903165,56.1511483 290.903165,54.7153409 C290.903165,53.0194705 289.875024,51.7973409 288.372165,51.7973409 Z M434.808225,33.6187282 C435.4139,51.5115935 427.287159,62.2801739 413.600573,67.0309595 C407.746727,69.0629029 401.694844,69.7544161 396.281303,69.6391703 C398.08191,81.0223578 394.89304,88.5936304 388.296088,92.7048478 C386.453807,93.8529567 384.495741,94.6219119 382.538615,95.0897689 C381.396735,95.3627388 380.474595,95.4869789 379.868523,95.5215711 C369.751341,96.5335292 362.006033,92.6364135 356.518237,85.6115074 C354.831251,83.4520027 353.48606,81.1489861 352.44272,78.8443054 C351.810317,77.4473607 351.412863,76.3397896 351.223312,75.6823263 C346.683991,60.4536343 346.80115,45.0996878 349.717058,31.1295669 C350.161182,29.0017675 350.638085,27.0932602 351.116717,25.4296374 C351.408241,24.4163619 351.639332,23.6999741 351.772677,23.3244082 C355.40843,12.8211223 362.250076,5.7845962 371.290181,1.72904166 C378.661691,-1.5779505 386.278547,-2.50193203 392.618688,-2.14426873 C392.953642,-2.12537313 393.211328,-2.10584564 393.385859,-2.08968486 C410.685244,-1.49017059 422.273066,5.09147673 428.981121,15.690141 C431.452694,19.5952033 433.069832,23.7650877 434.005432,27.9341919 C434.333599,29.396531 434.553672,30.7586549 434.686143,31.9886803 C434.766231,32.7323172 434.800652,33.2857045 434.808225,33.6187282 Z M393.372165,33.7973409 C391.905735,33.7973409 390.580357,35.2125753 390.705812,36.5372233 C390.844927,38.4848379 391.457887,38.9883409 393.372165,38.9883409 C394.983894,38.9883409 395.903165,38.1511483 395.903165,36.7153409 C395.903165,35.0194705 394.875024,33.7973409 393.372165,33.7973409 Z M548.269386,30.1061695 C548.348237,29.4863464 548.447902,28.7994329 548.571785,28.0552588 C549.147371,24.5976784 550.0638,21.1359355 551.405902,17.8793584 C555.617758,7.65939101 563.073708,1.60312862 574.267932,2.38597274 C575.043055,2.44590489 576.263,2.67154809 577.783936,3.17115265 C580.265546,3.98632443 582.739425,5.29603881 585.044104,7.21080339 C590.989273,12.1501443 594.716644,20.1501006 595.251802,31.6724358 C595.806839,43.5545019 595.166998,55.3885786 593.760794,66.459132 C593.39147,69.3666843 592.995419,71.9970428 592.598765,74.3058234 C592.45938,75.1171345 592.329652,75.8312862 592.21284,76.4427207 C592.152158,76.7603537 592.10567,76.9948584 592.075409,77.1427656 C591.955653,77.9104527 591.695356,79.1426443 591.252721,80.6924375 C590.495453,83.3438495 589.450398,85.9972858 588.062224,88.4930552 C583.665695,96.3974853 576.847458,101.009464 567.372485,100.281173 C557.490917,99.4651724 551.331779,93.0322778 548.264508,83.1664695 C547.272591,79.9759889 546.661305,76.5920905 546.353011,73.1671684 C546.22682,71.7652713 546.159959,70.4686572 546.136827,69.3126084 L545.980407,69.3016705 C545.842476,70.0074555 545.680557,70.7572928 545.492763,71.543497 C544.683169,74.9329004 543.560384,78.3252941 542.064762,81.5133149 C537.41768,91.4188894 530.190097,97.3334672 520.009478,96.7103172 C519.233772,96.6925291 518.034225,96.5510836 516.542892,96.1852055 C514.024663,95.5673922 511.50856,94.4850833 509.155076,92.8202808 C502.694822,88.2504409 498.786174,80.3040966 498.593704,68.4729431 C498.422272,54.8769744 499.230903,42.9214504 500.686772,32.7381825 C501.151576,29.4870453 501.650661,26.6548166 502.151266,24.2544217 C502.327848,23.4077122 502.492526,22.6738136 502.641205,22.0543392 C502.717823,21.7351095 502.777426,21.4986491 502.8176,21.3459096 C502.970839,20.6123867 503.277324,19.4381734 503.766089,17.9625786 C504.606016,15.4268138 505.70728,12.8895133 507.110615,10.503807 C511.524817,2.99954394 517.931623,-1.42419847 526.498183,-0.825166245 C537.227422,-0.074904781 543.706267,6.39050457 546.602595,16.3554815 C547.950485,20.9929698 548.384439,25.7882296 548.269386,30.1061695 Z M603.256345,73.3545144 C603.3601,69.9432913 603.73762,66.0024788 604.348027,61.628693 C604.82761,58.1923139 605.440321,54.5649455 606.155045,50.8304021 C606.791425,47.5052164 607.472941,44.2782888 608.154631,41.2733344 C608.393422,40.2207235 608.615315,39.2704908 608.814687,38.4381788 C608.884687,38.1459532 608.946943,37.8890657 609.000751,37.6694617 C609.033373,37.5363223 609.055698,37.4461479 609.046569,37.4904593 C609.226567,36.6293085 609.606228,35.1879942 610.221852,33.355423 C611.243906,30.3130058 612.575525,27.2690697 614.261329,24.4106258 C620.024826,14.6380625 628.470633,9.31346246 639.790377,11.2420834 C640.475608,11.3629079 641.554661,11.6591786 642.899393,12.2045337 C645.093799,13.0944739 647.281183,14.3826841 649.322172,16.1460872 C655.591346,21.5626185 659.080382,30.1386789 658.445738,42.3149678 C657.901407,51.8878967 656.555182,61.455024 654.651924,70.6919123 C653.765274,74.9950009 652.814877,78.9444744 651.863458,82.4557253 C651.529491,83.6882458 651.21883,84.7791851 650.939303,85.717935 C650.840807,86.0487195 650.753036,86.3374541 650.676968,86.5828113 C650.643575,86.6905195 650.617193,86.7745972 650.598183,86.8345559 C650.411609,87.5195619 650.049999,88.6145472 649.489009,89.9892052 C648.532245,92.3336764 647.310009,94.6782676 645.788106,96.8803842 C640.449007,104.605788 632.8385,108.688557 622.898289,106.867383 C613.374208,105.068742 607.534599,98.8853076 604.798287,89.945723 C603.191535,84.6964335 602.831292,79.2373073 603.16261,74.4422896 C603.195473,73.9666856 603.229143,73.5998567 603.256345,73.3545144 Z M713.221122,22.8283767 C723.852462,25.5267813 729.606102,32.5566104 731.34085,42.1768135 C731.554067,43.3592272 731.701403,44.5559058 731.7889,45.7604244 C732.673585,44.5293457 733.637545,43.3235877 734.681116,42.1702248 C741.245964,34.9147048 749.47595,31.6015147 759.208092,34.0280102 C766.415577,35.825038 771.819696,40.6614624 775.663217,47.4966984 C777.357006,50.5088956 778.635294,53.7159081 779.562992,56.9209868 C780.121839,58.8517343 780.443135,60.3709735 780.57627,61.2429799 C780.698659,61.9685359 780.812414,62.700032 780.917664,63.4372924 C782.599617,75.2190948 782.087722,87.7620971 780.219827,99.833387 C779.847046,102.242483 779.447231,104.434196 779.046648,106.368222 C778.905727,107.048591 778.77448,107.649251 778.656183,108.165148 C778.583961,108.480109 778.531255,108.700118 778.523571,108.722678 C776.212636,119.872558 771.651447,127.061242 765.416587,130.811377 C760.694219,133.65178 755.72558,134.190473 751.279621,133.419051 C750.658538,133.311287 750.181882,133.198549 749.869873,133.107936 C738.232415,130.183348 732.27912,121.164893 730.839613,108.368718 C730.458383,104.979861 730.407753,101.477053 730.619534,97.9540533 C726.701532,102.033639 722.403116,103.064644 718.638007,102.213906 C718.295642,102.136548 718.011675,102.053512 717.790504,101.975948 C712.404897,100.585971 709.054676,96.9325744 707.441309,91.8280721 C704.763941,98.3025711 701.589493,103.377482 697.989182,107.174114 C691.358583,114.166274 684.239386,116.11609 678.208495,115.190092 C677.726512,115.116087 677.363417,115.036255 677.200756,114.989544 C666.705011,112.37266 660.626998,106.230657 658.368509,97.7782785 C657.042321,92.8150296 657.148277,87.6008049 658.110203,82.6653041 C658.369584,81.3344582 658.63339,80.3199925 658.827514,79.6992411 C660.987225,71.0601067 663.998316,62.9360199 667.644817,55.3846537 C670.371065,49.7389969 673.294191,44.733751 676.222212,40.4200349 C677.25171,38.9033247 678.210319,37.5791836 679.074144,36.4540433 C679.569491,35.8088495 679.938722,35.35111 680.162018,35.086197 C682.218157,32.42587 684.412539,30.1760472 686.728798,28.3168156 C694.791519,21.8449716 703.385152,20.5431787 711.016716,22.2187239 C711.989632,22.4323319 712.734525,22.6528318 713.221122,22.8283767 Z" id="DROP-HIM" stroke="#FFFFFF" stroke-width="5" fill="url(#linearGradient-3)"></path>
        </g>
    </g>
</svg>