<?xml version="1.0" encoding="UTF-8"?>
<svg width="750px" height="460px" viewBox="0 0 750 460" version="1.1" xmlns="http://www.w3.org/2000/svg" xmlns:xlink="http://www.w3.org/1999/xlink">
    <!-- Generator: Sketch 52.6 (67491) - http://www.bohemiancoding.com/sketch -->
    <title>you win</title>
    <desc>Created with Sketch.</desc>
    <defs>
        <linearGradient x1="50%" y1="93.9657634%" x2="50%" y2="1.18390751%" id="linearGradient-1">
            <stop stop-color="#7F96FF" offset="0%"></stop>
            <stop stop-color="#89FFB9" offset="100%"></stop>
        </linearGradient>
    </defs>
    <g id="you-win" stroke="none" stroke-width="1" fill="none" fill-rule="evenodd">
        <path d="M253.827682,50.8268221 C257.582301,43.1829432 262.286286,37.2975883 267.788135,33.0470287 C276.346794,26.4348713 285.367239,24.5924763 293.026716,25.4030621 C293.471009,25.4500806 293.841208,25.5011217 294.13241,25.5496122 C310.378558,27.507558 320.294879,35.624777 324.299707,47.6728484 C326.418209,54.0461224 326.644084,60.6296637 325.790848,66.7003894 C325.61827,67.9282708 325.437435,68.8602922 325.306584,69.4059289 C322.379461,81.9574118 315.559975,92.720153 306.095735,101.765332 C301.646346,106.017709 296.895569,109.613831 292.138286,112.584484 C291.452976,113.012421 290.786425,113.415302 290.141127,113.793312 C294.492282,130.863637 293.119161,146.080015 288.055626,158.902122 C287.025319,161.511111 285.912806,163.80949 284.786804,165.785692 C284.077273,167.030961 283.491532,167.928908 283.119525,168.437033 C275.936521,178.386342 266.871613,182.710535 254.249874,182.710535 C245.751531,182.710535 238.497478,180.709271 232.525004,177.343113 C230.383261,176.136001 228.546602,174.828004 227.006835,173.497693 C226.443859,173.011298 225.952158,172.548544 225.530496,172.118808 C225.283148,171.866724 225.086172,171.653163 224.938792,171.483965 C219.057049,164.900306 215.525684,156.371186 213.903185,146.441168 C212.349761,136.9339 212.62844,126.928678 214.017517,117.368791 C214.103033,116.780257 214.19073,116.209797 214.279937,115.658414 C213.499541,115.265238 212.688226,114.842064 211.850058,114.388717 C206.782412,111.647732 201.716547,108.347874 196.963363,104.46377 C184.858752,94.5723852 176.779278,82.606254 174.885403,68.4222981 C172.441592,49.7485074 178.975907,36.8459842 191.253588,29.5738825 C194.845053,27.4466484 198.647862,25.9812787 202.446766,25.041571 C203.780039,24.7117689 205.026388,24.4696092 206.160193,24.3008892 C206.88066,24.1936773 207.433309,24.1332248 207.870794,24.1009783 C226.079383,22.9773335 240.081858,31.0682176 250.039913,44.9200608 C251.422445,46.843189 252.682842,48.819825 253.827683,50.8268226 Z M387.133383,67.0375207 C411.895133,67.1113072 428.351122,77.8944581 437.380378,95.577739 C440.503413,101.694024 442.492909,108.187879 443.59654,114.672075 C443.982715,116.940976 444.231838,119.055181 444.37132,120.96735 C444.457885,122.154083 444.488021,123.039376 444.488021,123.575423 C444.488021,136.235985 442.128352,146.921544 437.622548,155.683489 L437.567867,155.787311 C434.649009,161.200314 430.710754,165.986063 426.020722,170.186203 C422.421471,173.409498 418.585096,176.109372 414.743482,178.321746 C413.390882,179.100704 412.127385,179.766213 410.981534,180.321456 C410.26351,180.669388 409.722265,180.911886 409.342529,181.069681 C404.142368,183.185243 398.88345,184.539123 393.809555,185.292275 C392.023027,185.557461 390.378692,185.728935 388.906635,185.825182 C387.984877,185.885449 387.298345,185.906632 386.877335,185.906632 C359.174185,185.906632 340.763643,175.245429 330.566718,157.530878 C327.012995,151.357192 324.744476,144.788908 323.485418,138.227035 C323.044079,135.92689 322.759178,133.782142 322.599511,131.840475 C322.500032,130.630737 322.465241,129.724133 322.465241,129.168593 C322.465241,99.7472329 334.860595,81.2866979 355.289038,72.449329 C366.020916,67.8067058 377.0335,66.5035391 386.209557,66.9793609 C386.583311,66.9987418 386.892485,67.0189418 387.133383,67.0375207 Z M385.677086,127.378106 C385.17538,127.378106 384.617837,127.634664 384.177338,128.104357 C383.788156,128.519331 383.624769,128.951209 383.648326,129.198201 L383.660138,129.339771 C383.791662,131.178468 383.767727,131.158835 385.677086,131.158835 C387.047497,131.158835 387.478702,130.766691 387.478702,129.767861 C387.478702,128.245363 386.748062,127.378106 385.677086,127.378106 Z M483.240901,67.4787697 C483.533695,67.5074375 483.896574,67.5521829 484.322912,67.617269 C485.264018,67.7609413 486.292657,67.972068 487.389251,68.2644184 C490.496491,69.0928041 493.602681,70.4163766 496.529691,72.3639273 C504.612783,77.7421919 509.592519,86.6788754 509.900143,99.2743494 C509.917216,100.058565 509.927568,100.767227 509.944443,102.162573 C509.978417,104.971947 509.998357,106.103436 510.051334,107.603334 C510.10065,108.9996 510.172818,110.264949 510.269925,111.403833 C510.368119,109.211538 510.425937,106.288107 510.472023,102.199361 C510.487587,100.802121 510.495848,100.067564 510.504349,99.3590739 C510.607741,85.8340562 516.004983,76.5304248 524.890159,71.3646573 C528.011496,69.5499375 531.310725,68.3990509 534.603905,67.7608418 C535.760417,67.536713 536.843364,67.3914168 537.832322,67.309278 C538.360607,67.2654008 538.793411,67.2445835 539.119046,67.238701 C553.010726,66.5376764 563.057288,71.7003488 569.292233,80.6680873 C571.313745,83.5756342 572.771585,86.6615999 573.771791,89.7501793 C574.124757,90.8401205 574.397296,91.8620211 574.600576,92.7957044 C574.701848,93.2608539 574.774143,93.647537 574.822142,93.9464893 C577.953865,109.093005 576.611291,124.687584 572.497271,139.493129 C571.617513,142.659205 570.672635,145.537444 569.722899,148.080566 C569.194699,149.494936 568.762005,150.55269 568.469262,151.218022 C568.327569,151.58826 568.118701,152.093594 567.837949,152.718277 C567.293448,153.929812 566.622863,155.261182 565.816862,156.68277 C563.541053,160.69674 560.615218,164.696352 556.959031,168.433385 C546.121566,179.510488 531.258248,185.991921 512.158626,185.505375 C493.406328,185.053067 478.8493,180.931065 468.038939,174.241514 C463.877482,171.666366 460.540517,168.867236 457.952434,166.02184 C457.009108,164.984726 456.221409,164.00119 455.578631,163.092964 C455.258816,162.641075 455.00736,162.254858 454.819687,161.943063 C450.101962,154.984645 447.034463,146.674842 445.359983,137.326842 C443.26483,125.630379 443.454032,113.2973 445.016624,101.598902 C445.275726,99.6591256 445.554263,97.900836 445.8344,96.351698 C446.006537,95.3997903 446.144509,94.7139449 446.238292,94.2875655 C448.948941,82.2874964 455.301312,74.3622598 464.100169,70.2639132 C470.215192,67.4156478 476.499546,66.77024 482.051472,67.3312681 C482.530677,67.3796922 482.92953,67.4311084 483.240901,67.4787697 Z M150.991968,318.969308 C154.171107,304.098144 160.094045,293.202587 168.203102,285.851514 C172.805828,281.679022 177.78869,278.968765 182.806145,277.452614 C184.600166,276.910504 186.285868,276.557859 187.827412,276.358223 C188.825758,276.228933 189.606733,276.181735 190.038926,276.18253 C208.966275,275.874372 221.25191,285.721783 227.515108,301.657483 C229.494839,306.694591 230.739227,312.019514 231.410425,317.363619 C231.652443,319.290581 231.804682,321.111302 231.884409,322.791599 C231.938103,323.92323 231.952772,324.841901 231.944933,325.512833 C231.944531,325.541914 231.94424,325.562961 231.944008,325.579189 C231.939227,345.110709 229.155241,363.226718 224.511908,379.4874 C222.878743,385.206649 221.124167,390.294959 219.361972,394.698237 C218.738188,396.256915 218.155219,397.62363 217.627225,398.791615 C217.339073,399.429043 217.11508,399.902914 216.964787,400.20865 C212.302589,410.502871 205.780323,418.236664 197.884312,423.637675 C192.170452,427.546056 186.063248,430.022844 179.909081,431.351251 C175.935592,432.208949 172.57344,432.472259 170.12358,432.408621 C170.083143,432.40757 170.04789,432.406552 170.015311,432.405494 C151.41556,432.368478 138.982417,423.512931 132.280144,409.023921 C132.140043,408.721049 132.002998,408.416858 131.868969,408.111405 C131.482874,408.873821 131.079869,409.631656 130.659573,410.382988 C122.86218,424.321802 110.706825,432.805123 93.9166775,432.805123 C80.1369742,432.805123 68.5539425,426.214151 59.167262,415.471729 C55.9730592,411.816179 53.25883,407.922426 51.0013828,404.025288 C50.2077254,402.655159 49.5248882,401.376304 48.9513504,400.217886 C48.5936047,399.495319 48.3436088,398.953549 48.2226605,398.672916 C46.5516795,394.901428 45.0237814,390.981227 43.6323678,386.92714 C39.0137168,373.470026 36.0594164,359.123718 34.4194744,344.789086 C33.846202,339.778147 33.4773366,335.120927 33.2719355,330.931664 C33.1534687,328.515472 33.1096172,326.733251 33.105632,325.68396 C32.0493675,304.096694 38.9401697,289.729839 51.2498725,281.94842 C55.2531897,279.417775 59.5106429,277.805121 63.7703775,276.913344 C65.277999,276.597722 66.6920531,276.393999 67.9847883,276.280152 C68.8179569,276.206778 69.4720403,276.180705 69.9198308,276.181733 C69.9319301,276.181778 69.9251891,276.181764 69.9117072,276.181735 C69.9144078,276.181735 69.9171083,276.181735 69.9198086,276.181736 C69.9225311,276.181739 69.9252239,276.181746 69.9279092,276.181754 C69.9332901,276.181774 69.9359806,276.181783 69.9339553,276.181781 C88.894217,276.184829 101.926142,287.056622 109.567955,305.084235 C111.382597,309.365111 112.828927,313.836883 113.961328,318.417387 C115.263094,317.077568 116.697795,315.904318 118.2558,314.896141 C121.009602,313.114172 123.938353,311.994877 126.88894,311.402404 C128.828761,311.012891 130.510366,310.897147 131.820853,310.938429 C131.842172,310.939218 131.860751,310.939905 131.877156,310.940517 C139.959613,311.032798 146.329905,313.953751 150.991968,318.969308 Z M298.927525,291.766412 C300.477574,307.016464 288.104116,320.778092 271.766907,322.508326 C255.114812,324.220067 240.395067,313.523073 238.57874,297.971092 C237.021239,282.677512 249.445101,268.94493 265.9205,267.226082 C282.340659,265.487034 297.381556,276.359008 298.927525,291.766412 Z M307.475411,405.634217 C305.538058,417.134822 299.408187,425.055291 290.595204,429.615504 C286.988041,431.482004 283.179424,432.655761 279.362269,433.291711 C277.989985,433.520337 276.692995,433.665209 275.493797,433.742481 C274.734971,433.791377 274.104325,433.808182 273.6204,433.80508 C261.83527,434.186166 252.697977,430.15843 246.218208,423.223705 C244.050437,420.903731 242.3436,418.423912 241.036404,415.930322 C240.570186,415.040972 240.18407,414.203625 239.871197,413.434955 C239.699575,413.01331 239.570613,412.66427 239.480669,412.397413 C237.702331,407.519072 236.401157,402.320168 235.535663,396.846051 C233.353051,383.041373 233.993102,368.438712 236.36743,354.395399 C236.838003,351.612125 237.343325,349.077389 237.85081,346.835809 C238.160891,345.466169 238.407771,344.481329 238.556532,343.935671 C241.362969,333.575157 246.784744,326.168142 254.039751,321.509171 C257.77944,319.107643 261.760887,317.591689 265.768073,316.77952 C268.285524,316.269287 270.439786,316.10148 272.067417,316.128919 C285.195029,315.461065 294.99958,321.038986 301.480193,330.499404 C303.559472,333.534743 305.139732,336.752351 306.304334,339.970685 C306.714079,341.102999 307.044819,342.162559 307.304883,343.127425 C307.429821,343.590957 307.52315,343.974049 307.588107,344.267243 C307.703699,344.690179 307.857919,345.310119 308.03858,346.123726 C308.384191,347.680193 308.725524,349.505978 309.041248,351.595178 C311.201571,365.890421 311.155581,384.040654 307.475412,405.634217 Z M383.630162,411.128361 C382.906494,412.833324 382.052518,414.514428 381.054433,416.149868 C375.002134,426.06703 364.98933,432.200454 350.861321,432.404913 C337.040953,432.61561 326.973801,426.181798 320.531392,415.657149 C318.384005,412.149069 316.797798,408.433732 315.67108,404.721008 C315.275753,403.418337 314.964197,402.201275 314.726152,401.095571 C314.62108,400.607518 314.542645,400.200633 314.487621,399.883793 C314.366564,399.40557 314.204277,398.71042 314.013108,397.805783 C313.627723,395.982092 313.245677,393.859673 312.89127,391.453146 C311.241875,380.253261 310.719541,367.03098 311.982229,352.216474 C312.012023,351.844576 312.077395,351.253536 312.190927,350.472995 C312.371594,349.230885 312.625798,347.861696 312.966988,346.394649 C313.941497,342.204457 315.429314,338.007906 317.561342,334.041186 C323.46093,323.064782 333.118887,315.961137 346.811289,315.144846 C363.949269,314.120959 374.547472,318.423662 381.297873,327.083268 C381.501225,327.344133 381.692354,327.595086 381.875823,327.842657 C383.545001,327.047248 385.331312,326.264896 387.218544,325.519139 C396.676421,321.781769 406.300173,319.826705 415.539527,320.67307 C438.418723,322.768902 453.149655,341.280157 455.775438,378.44076 L455.785709,378.586117 L455.788912,378.731801 C455.789874,378.778061 455.789874,378.778061 455.791272,378.882708 C455.799302,379.595113 455.783014,380.578855 455.724301,381.795737 C455.636753,383.610247 455.470116,385.578504 455.205523,387.662905 C454.471101,393.448519 453.111551,399.213308 450.95172,404.661021 C445.334185,418.830058 435.224419,428.624299 419.866019,431.324781 C419.519068,431.382345 418.980778,431.453442 418.273907,431.519758 C412.889499,432.0249 406.845959,431.546917 400.950358,429.27785 C392.776512,426.131945 386.719227,420.115014 383.630161,411.128358 Z M459.698076,344.459229 C458.69306,340.3182 458.119022,335.337499 457.887603,329.653755 C457.642016,323.622021 457.793558,317.217366 458.19453,310.983495 C458.287257,309.54188 458.386769,308.222764 458.486595,307.051954 C458.541611,306.406698 458.586231,305.926431 458.615658,305.630491 C458.645526,305.245643 458.705345,304.679811 458.805732,303.955469 C458.981019,302.690683 459.233928,301.297316 459.579542,299.804903 C460.565921,295.545562 462.10889,291.280461 464.352835,287.252157 C470.928162,275.448207 482.05588,268.191493 498.000343,268.191493 L498.142956,268.193188 C498.573693,268.203429 499.236832,268.246452 500.101319,268.343147 C501.461581,268.495295 502.956794,268.743579 504.5559,269.110235 C509.10164,270.152516 513.648604,271.942644 517.922592,274.679328 C526.494051,280.167733 532.759694,288.698671 535.640386,300.553744 C539.292115,315.727969 539.292115,330.93334 537.111363,344.725063 C536.791273,346.749411 536.446637,348.567827 536.099339,350.157647 C535.884332,351.141883 535.710504,351.850869 535.589465,352.298772 C535.501949,352.614925 535.35094,353.100886 535.129855,353.733442 C534.782694,354.726718 534.3526,355.817646 533.832314,356.983066 C532.357068,360.287559 530.436177,363.587316 527.99858,366.689872 C520.892983,375.733827 510.91263,381.268059 498.000343,381.268059 C483.312245,381.268059 472.728266,373.99485 466.013175,362.269365 C463.742818,358.305005 462.079108,354.105735 460.910739,349.910849 C460.501389,348.441127 460.181442,347.069529 459.939569,345.825797 C459.83138,345.26948 459.752159,344.810315 459.698076,344.459229 Z M529.805686,409.426345 C529.805686,424.988217 515.309269,437 497.800301,437 C480.455165,437 465.994958,424.954148 465.994958,409.426345 C465.994958,393.898543 480.455165,381.852691 497.800301,381.852691 C515.309269,381.852691 529.805686,393.864474 529.805686,409.426345 Z M548.916549,344.459229 C547.911533,340.3182 547.337494,335.337499 547.106076,329.653755 C546.860488,323.622021 547.012031,317.217366 547.413003,310.983495 C547.50573,309.54188 547.605242,308.222764 547.705068,307.051954 C547.760084,306.406698 547.804703,305.926431 547.834131,305.630491 C547.863999,305.245643 547.923818,304.679811 548.024205,303.955469 C548.199492,302.690683 548.4524,301.297316 548.798014,299.804903 C549.784394,295.545562 551.327363,291.280461 553.571307,287.252157 C560.146634,275.448207 571.274352,268.191493 587.218816,268.191493 L587.361429,268.193188 C587.792165,268.203429 588.455305,268.246452 589.319792,268.343147 C590.680054,268.495295 592.175267,268.743579 593.774373,269.110235 C598.320113,270.152516 602.867077,271.942644 607.141065,274.679328 C615.712524,280.167733 621.978166,288.698671 624.858859,300.553744 C628.510587,315.727969 628.510587,330.93334 626.329836,344.725063 C626.009745,346.749411 625.665109,348.567827 625.317812,350.157647 C625.102805,351.141883 624.928976,351.850869 624.807938,352.298772 C624.720421,352.614925 624.569413,353.100886 624.348327,353.733442 C624.001166,354.726718 623.571072,355.817646 623.050787,356.983066 C621.575541,360.287559 619.654649,363.587316 617.217053,366.689872 C610.111456,375.733827 600.131103,381.268059 587.218816,381.268059 C572.530718,381.268059 561.946738,373.99485 555.231648,362.269365 C552.96129,358.305005 551.297581,354.105735 550.129212,349.910849 C549.719861,348.441127 549.399915,347.069529 549.158042,345.825797 C549.049852,345.26948 548.970632,344.810315 548.916549,344.459229 Z M619.024159,409.426345 C619.024159,424.988217 604.527741,437 587.018774,437 C569.673638,437 555.213431,424.954148 555.213431,409.426345 C555.213431,393.898543 569.673638,381.852691 587.018774,381.852691 C604.527741,381.852691 619.024159,393.864474 619.024159,409.426345 Z M638.135021,344.459229 C637.130006,340.3182 636.555967,335.337499 636.324548,329.653755 C636.078961,323.622021 636.230504,317.217366 636.631476,310.983495 C636.724203,309.54188 636.823715,308.222764 636.923541,307.051954 C636.978557,306.406698 637.023176,305.926431 637.052604,305.630491 C637.082472,305.245643 637.14229,304.679811 637.242677,303.955469 C637.417965,302.690683 637.670873,301.297316 638.016487,299.804903 C639.002866,295.545562 640.545835,291.280461 642.78978,287.252157 C649.365107,275.448207 660.492825,268.191493 676.437288,268.191493 L676.579901,268.193188 C677.010638,268.203429 677.673777,268.246452 678.538265,268.343147 C679.898527,268.495295 681.393739,268.743579 682.992845,269.110235 C687.538586,270.152516 692.08555,271.942644 696.359538,274.679328 C704.930997,280.167733 711.196639,288.698671 714.077332,300.553744 C717.72906,315.727969 717.72906,330.93334 715.548309,344.725063 C715.228218,346.749411 714.883582,348.567827 714.536285,350.157647 C714.321277,351.141883 714.147449,351.850869 714.026411,352.298772 C713.938894,352.614925 713.787886,353.100886 713.5668,353.733442 C713.219639,354.726718 712.789545,355.817646 712.269259,356.983066 C710.794014,360.287559 708.873122,363.587316 706.435526,366.689872 C699.329929,375.733827 689.349575,381.268059 676.437288,381.268059 C661.749191,381.268059 651.165211,373.99485 644.45012,362.269365 C642.179763,358.305005 640.516054,354.105735 639.347684,349.910849 C638.938334,348.441127 638.618388,347.069529 638.376514,345.825797 C638.268325,345.26948 638.189104,344.810315 638.135021,344.459229 Z M708.242631,409.426345 C708.242631,424.988217 693.746214,437 676.237247,437 C658.892111,437 644.431904,424.954148 644.431904,409.426345 C644.431904,393.898543 658.892111,381.852691 676.237247,381.852691 C693.746214,381.852691 708.242631,393.864474 708.242631,409.426345 Z" id="You-Win!!!" stroke="url(#linearGradient-1)" stroke-width="12" fill="#FFFFFF"></path>
        <ellipse id="Oval" fill="#87EEC4" cx="385" cy="129.5" rx="6" ry="6.5"></ellipse>
    </g>
</svg>